<?xml version="1.0" standalone="no"?>
<!DOCTYPE svg PUBLIC "-//W3C//DTD SVG 1.1//EN" "http://www.w3.org/Graphics/SVG/1.1/DTD/svg11.dtd">
<svg width="108mm" height="418mm" viewBox="-58 -356 108 418" xmlns="http://www.w3.org/2000/svg" version="1.1">
<title>OpenSCAD Model</title>
<path d="
M -1.84102,-270.49 L -1.4304,-261.754 L -0.0862427,-261.84 L -0.496872,-270.577 L 0.121017,-261.856 L 1.46182,-261.986
 L 0.843964,-270.705 L 1.67038,-262.009 L 3.00685,-262.182 L 2.1804,-270.879 L 3.21666,-262.213 L 4.5477,-262.43
 L 3.51155,-271.094 L 4.75874,-262.467 L 6.08324,-262.728 L 4.83585,-271.356 L 6.29547,-262.774 L 7.61237,-263.078
 L 6.15283,-271.661 L 7.82571,-263.131 L 9.134,-263.481 L 7.46112,-272.01 L 9.34831,-263.542 L 10.6469,-263.936
 L 8.75964,-272.404 L 10.8621,-264.005 L 12.1499,-264.444 L 10.0474,-272.843 L 12.3657,-264.521 L 13.6417,-265.005
 L 11.3234,-273.327 L 13.8581,-265.092 L 15.1212,-265.621 L 12.5865,-273.856 L 15.3378,-265.716 L 16.5869,-266.291
 L 13.8354,-274.431 L 16.8036,-266.395 L 18.0377,-267.015 L 15.0699,-275.051 L 18.254,-267.129 L 19.4721,-267.795
 L 16.2878,-275.717 L 19.6877,-267.918 L 20.8886,-268.631 L 17.4887,-276.43 L 21.1032,-268.763 L 22.2859,-269.522
 L 18.6713,-277.189 L 22.4992,-269.664 L 23.6625,-270.47 L 19.8347,-277.994 L 23.8739,-270.622 L 25.017,-271.474
 L 20.9778,-278.847 L 25.226,-271.636 L 26.3477,-272.535 L 22.0997,-279.746 L 26.5538,-272.707 L 27.6531,-273.653
 L 23.1989,-280.692 L 27.8559,-273.834 L 28.9316,-274.829 L 24.2746,-281.687 L 29.1305,-275.019 L 30.1816,-276.061
 L 25.3253,-282.729 L 30.3761,-276.261 L 31.4016,-277.35 L 26.3504,-283.819 L 31.5911,-277.559 L 32.5898,-278.697
 L 27.3494,-284.957 L 32.7739,-278.914 L 33.7448,-280.101 L 28.3201,-286.143 L 33.9229,-280.326 L 34.8649,-281.561
 L 29.2621,-287.378 L 35.0364,-281.794 L 35.9485,-283.077 L 30.1745,-288.662 L 36.1131,-283.317 L 36.9942,-284.65
 L 31.0559,-289.994 L 37.1513,-284.897 L 38.0005,-286.279 L 31.9051,-291.376 L 38.1497,-286.531 L 38.9658,-287.962
 L 32.7209,-292.808 L 39.1069,-288.219 L 39.8888,-289.7 L 33.5028,-294.289 L 40.0215,-289.962 L 40.7681,-291.493
 L 34.2492,-295.82 L 40.8922,-291.758 L 41.6025,-293.339 L 34.9598,-297.401 L 41.7178,-293.607 L 42.3908,-295.238
 L 35.6327,-299.033 L 42.4972,-295.508 L 43.1318,-297.19 L 36.2674,-300.714 L 43.2292,-297.46 L 43.8244,-299.193
 L 36.8625,-302.447 L 43.913,-299.464 L 44.4675,-301.248 L 37.4169,-304.231 L 44.5473,-301.518 L 45.0603,-303.353
 L 37.9299,-306.066 L 45.1315,-303.622 L 45.6017,-305.509 L 38.3995,-307.953 L 45.6645,-305.776 L 46.091,-307.714
 L 38.8267,-309.89 L 46.1456,-307.979 L 46.5273,-309.969 L 39.2076,-311.881 L 46.574,-310.231 L 46.9098,-312.273
 L 39.5442,-313.922 L 46.9489,-312.532 L 47.2378,-314.626 L 42.7208,-315.474 L 46.462,-317.302 L 46.2366,-317.93
 L 41.6295,-315.679 L 41.5876,-315.687 L 46.21,-318.003 L 45.9822,-318.622 L 40.5235,-315.887 L 40.4967,-315.892
 L 45.9539,-318.698 L 45.7236,-319.308 L 39.4597,-316.087 L 39.4482,-316.089 L 45.6935,-319.386 L 45.4606,-319.987
 L 38.6289,-316.38 L 45.4285,-320.068 L 45.1929,-320.659 L 38.3895,-316.969 L 45.1587,-320.744 L 44.9204,-321.326
 L 38.1538,-317.552 L 44.884,-321.413 L 44.6429,-321.985 L 37.9126,-318.124 L 44.6042,-322.076 L 44.36,-322.639
 L 37.6694,-318.688 L 44.3189,-322.732 L 44.0716,-323.285 L 37.4224,-319.241 L 44.0279,-323.382 L 43.7774,-323.925
 L 37.1706,-319.784 L 43.7311,-324.025 L 43.4773,-324.559 L 36.9169,-320.319 L 43.428,-324.661 L 43.1709,-325.186
 L 36.6609,-320.844 L 43.1186,-325.291 L 42.858,-325.806 L 36.3992,-321.358 L 42.8026,-325.914 L 42.5384,-326.419
 L 36.1359,-321.864 L 42.4796,-326.53 L 42.2118,-327.026 L 35.8664,-322.359 L 42.1495,-327.139 L 41.8779,-327.625
 L 35.5957,-322.845 L 41.7424,-327.686 L 41.8984,-327.654 L 44.5031,-344.888 L -5.99245,-355.276 L -7.23184,-347.075
 L -14.6179,-348.595 L -18.067,-325.774 L -11.9289,-324.511 L -8.51651,-315.789 L -7.5892,-316.282 L -6.68587,-316.757
 L -5.7993,-317.215 L -4.91989,-317.663 L -4.06525,-318.091 L -3.21419,-318.511 L -2.38281,-318.913 L -1.55659,-319.306
 L -0.752869,-319.68 L 0.0417633,-320.043 L 0.825439,-320.394 L 1.59337,-320.73 L 2.35197,-321.054 L 3.0898,-321.361
 L 3.82401,-321.66 L 4.54034,-321.943 L 5.24609,-322.214 L 5.9399,-322.472 L 6.61856,-322.717 L 7.28781,-322.95
 L 7.94115,-323.169 L 8.58232,-323.376 L 9.20915,-323.57 L 9.82732,-323.753 L 10.4301,-323.923 L 11.0168,-324.081
 L 11.5979,-324.228 L 12.161,-324.361 L 12.7156,-324.485 L 13.251,-324.595 L 13.7789,-324.696 L 14.2946,-324.785
 L 14.7936,-324.863 L 15.2841,-324.93 L 15.7578,-324.987 L 16.2214,-325.034 L 16.6757,-325.071 L 17.1125,-325.098
 L 17.5398,-325.116 L 17.9563,-325.125 L 18.359,-325.124 L 18.7484,-325.116 L 19.1264,-325.098 L 19.4956,-325.073
 L 19.8523,-325.04 L 20.1986,-325 L 20.532,-324.952 L 20.8573,-324.898 L 21.1705,-324.837 L 21.4754,-324.77
 L 21.7705,-324.696 L 22.0573,-324.616 L 22.3343,-324.531 L 22.6043,-324.44 L 22.8668,-324.343 L 23.1227,-324.241
 L 23.3705,-324.134 L 23.6142,-324.02 L 23.8508,-323.902 L 24.0834,-323.777 L 24.3114,-323.647 L 24.5345,-323.511
 L 24.756,-323.368 L 24.9735,-323.22 L 25.188,-323.064 L 25.4016,-322.901 L 25.6129,-322.73 L 25.8223,-322.553
 L 26.0307,-322.367 L 26.2386,-322.172 L 26.4465,-321.968 L 26.6526,-321.755 L 26.8599,-321.532 L 27.0656,-321.301
 L 27.2734,-321.057 L 27.4795,-320.804 L 27.687,-320.539 L 27.8931,-320.265 L 28.101,-319.977 L 28.3079,-319.679
 L 28.5155,-319.369 L 28.724,-319.045 L 28.9305,-318.713 L 29.1386,-318.366 L 29.3468,-318.006 L 29.5534,-317.636
 L 29.7603,-317.253 L 29.9682,-316.856 L 30.1744,-316.448 L 30.3814,-316.026 L 30.5884,-315.59 L 30.7921,-315.147
 L 30.9965,-314.69 L 31.2011,-314.218 L 31.405,-313.735 L 31.6084,-313.238 L 31.7265,-312.942 L 31.533,-311.933
 L 31.1651,-310.262 L 30.762,-308.645 L 30.3245,-307.08 L 29.8539,-305.566 L 29.3519,-304.104 L 28.8197,-302.694
 L 28.2573,-301.33 L 27.6671,-300.017 L 27.0484,-298.748 L 26.4035,-297.526 L 25.7325,-296.349 L 25.0365,-295.217
 L 24.3166,-294.128 L 23.5727,-293.081 L 22.8056,-292.075 L 22.0151,-291.109 L 21.2035,-290.185 L 20.3701,-289.299
 L 19.5167,-288.453 L 18.6421,-287.645 L 17.7467,-286.873 L 16.8328,-286.141 L 15.9002,-285.445 L 14.9493,-284.787
 L 13.9807,-284.165 L 12.9948,-283.58 L 11.9935,-283.032 L 10.9754,-282.521 L 9.94304,-282.046 L 8.89577,-281.607
 L 7.83643,-281.205 L 6.76466,-280.84 L 5.68092,-280.511 L 4.58662,-280.219 L 3.48219,-279.963 L 2.37012,-279.745
 L 1.24899,-279.562 L 0.120789,-279.416 L -1.01096,-279.307 L -2.14795,-279.234 L -3.29097,-279.198 L -4.43243,-279.198
 L -5.57693,-279.234 L -6.72331,-279.307 L -7.86613,-279.415 L -9.01064,-279.559 L -10.1498,-279.739 L -11.2838,-279.954
 L -12.4125,-280.205 L -13.5358,-280.49 L -14.6535,-280.811 L -15.7591,-281.165 L -16.8575,-281.555 L -17.9436,-281.977
 L -19.0163,-282.433 L -20.0797,-282.923 L -21.1268,-283.445 L -22.1584,-283.999 L -23.1757,-284.587 L -24.1758,-285.205
 L -25.1566,-285.855 L -26.1196,-286.536 L -27.0621,-287.247 L -27.9841,-287.988 L -28.8842,-288.759 L -29.7619,-289.559
 L -30.6175,-290.39 L -31.4483,-291.248 L -32.2551,-292.135 L -33.0352,-293.049 L -33.7902,-293.992 L -34.5181,-294.963
 L -35.2187,-295.961 L -35.8912,-296.987 L -36.5352,-298.04 L -37.1505,-299.122 L -37.7354,-300.231 L -38.2892,-301.366
 L -38.8128,-302.531 L -39.3043,-303.724 L -39.7639,-304.947 L -40.19,-306.198 L -40.5822,-307.479 L -40.9393,-308.789
 L -41.2614,-310.131 L -41.5469,-311.505 L -41.7947,-312.91 L -42.0042,-314.349 L -42.1736,-315.819 L -42.3024,-317.325
 L -42.389,-318.862 L -42.4322,-320.437 L -42.4307,-322.047 L -42.383,-323.692 L -42.2877,-325.372 L -42.1434,-327.09
 L -41.9484,-328.845 L -41.6836,-330.766 L -56.4933,-333.545 L -56.7763,-331.492 L -49.3707,-330.102 L -56.8092,-331.227
 L -57.0339,-329.205 L -49.5962,-328.08 L -57.0603,-328.934 L -57.2277,-326.943 L -49.7628,-326.089 L -57.2471,-326.666
 L -57.3583,-324.706 L -49.8746,-324.129 L -57.3703,-324.425 L -57.4262,-322.496 L -49.9306,-322.2 L -57.4305,-322.21
 L -57.4324,-320.312 L -49.9325,-320.302 L -57.4285,-320.022 L -57.3773,-318.156 L -49.8813,-318.437 L -57.365,-317.863
 L -57.2618,-316.029 L -49.7779,-316.603 L -57.2409,-315.734 L -57.0867,-313.932 L -49.6238,-314.801 L -57.0569,-313.635
 L -56.8529,-311.865 L -49.4196,-313.032 L -56.8139,-311.567 L -56.5612,-309.83 L -49.167,-311.295 L -56.5131,-309.532
 L -56.2126,-307.828 L -48.8665,-309.592 L -56.1554,-307.53 L -55.8082,-305.859 L -48.5196,-307.921 L -55.7419,-305.563
 L -55.349,-303.925 L -48.1268,-306.283 L -55.2737,-303.631 L -54.8363,-302.027 L -47.6892,-304.679 L -54.7521,-301.736
 L -54.2713,-300.166 L -47.2081,-303.109 L -54.1784,-299.878 L -53.6552,-298.342 L -46.6849,-301.573 L -53.5539,-298.059
 L -52.9894,-296.557 L -46.1206,-300.071 L -52.8801,-296.279 L -52.2752,-294.812 L -45.5153,-298.603 L -52.1583,-294.54
 L -51.5142,-293.107 L -44.8717,-297.17 L -51.3899,-292.841 L -50.7077,-291.443 L -44.1899,-295.771 L -50.5766,-291.185
 L -49.8572,-289.821 L -43.4705,-294.407 L -49.7197,-289.57 L -48.9643,-288.242 L -42.7152,-293.079 L -48.8208,-287.999
 L -48.0304,-286.706 L -41.9244,-291.787 L -47.8814,-286.47 L -47.0572,-285.213 L -41.1002,-290.53 L -46.9031,-284.986
 L -46.046,-283.765 L -40.2431,-289.308 L -45.8873,-283.546 L -44.9984,-282.361 L -39.3542,-288.123 L -44.8356,-282.151
 L -43.916,-281.002 L -38.4347,-286.975 L -43.7494,-280.801 L -42.8002,-279.689 L -37.4858,-285.862 L -42.6302,-279.496
 L -41.6524,-278.42 L -36.5073,-284.788 L -41.4794,-278.236 L -40.474,-277.197 L -35.5023,-283.749 L -40.2984,-277.021
 L -39.2666,-276.02 L -34.4705,-282.747 L -39.0886,-275.853 L -38.0314,-274.889 L -33.4134,-281.784 L -37.8513,-274.73
 L -36.7698,-273.804 L -32.3319,-280.857 L -36.5879,-273.653 L -35.4831,-272.764 L -31.2272,-279.969 L -35.2996,-272.621
 L -34.1727,-271.771 L -30.1002,-279.119 L -33.9877,-271.636 L -32.8396,-270.824 L -28.9519,-278.307 L -32.6535,-270.697
 L -31.4853,-269.923 L -27.7842,-277.532 L -31.2981,-269.804 L -30.1108,-269.069 L -26.5965,-276.799 L -29.9227,-268.956
 L -28.7175,-268.261 L -25.3917,-276.102 L -28.5284,-268.155 L -27.3063,-267.499 L -24.1692,-275.446 L -27.1164,-267.4
 L -25.8786,-266.783 L -22.9317,-274.828 L -25.6879,-266.692 L -24.4352,-266.114 L -21.6786,-274.252 L -24.2438,-266.029
 L -22.9775,-265.492 L -20.4124,-273.714 L -22.7853,-265.414 L -21.5063,-264.916 L -19.1334,-273.216 L -21.3135,-264.844
 L -20.0229,-264.387 L -17.8428,-272.759 L -19.8293,-264.321 L -18.5282,-263.905 L -16.5418,-272.342 L -18.3338,-263.846
 L -17.0233,-263.469 L -15.2315,-271.965 L -16.8281,-263.417 L -15.5092,-263.081 L -13.9124,-271.631 L -15.3132,-263.035
 L -13.987,-262.74 L -12.5863,-271.336 L -13.79,-262.7 L -12.4576,-262.447 L -11.2538,-271.084 L -12.2597,-262.413
 L -10.922,-262.202 L -9.91631,-270.872 L -10.7231,-262.173 L -9.38135,-262.004 L -8.57445,-270.703 L -9.18137,-261.982
 L -7.83653,-261.854 L -7.2296,-270.576 L -7.63544,-261.839 L -6.2886,-261.753 L -5.88284,-270.49 L -6.08636,-261.744
 L -4.73859,-261.701 L -4.53506,-270.448 L -4.53511,-261.698 L -3.18755,-261.698 L -3.18748,-270.448 L -2.9828,-261.701
 L -1.63637,-261.744 z
M -0.53508,-336.383 L -0.479858,-336.372 L 1.38857,-329.937 z
M 0.443161,-336.182 L 0.495316,-336.171 L 2.16711,-330.245 z
M 1.39886,-335.985 L 1.44792,-335.975 L 2.93507,-330.54 z
M -1.31175,-335.856 L -1.2953,-335.965 L 0.599289,-329.617 z
M 2.33228,-335.793 L 2.3782,-335.784 L 3.69284,-330.82 z
M 3.24362,-335.606 L 3.28641,-335.597 L 4.44044,-331.087 z
M 4.13326,-335.423 L 4.17284,-335.415 L 5.17674,-331.345 z
M 5.00142,-335.244 L 5.0378,-335.237 L 5.90285,-331.59 z
M 5.8485,-335.07 L 5.88162,-335.063 L 6.61913,-331.821 z
M 6.67474,-334.9 L 6.70462,-334.894 L 7.32585,-332.038 z
M 7.48042,-334.734 L 7.50711,-334.729 L 8.02228,-332.243 z
M 8.2661,-334.573 L 8.28949,-334.568 L 8.7083,-332.439 z
M 9.03188,-334.415 L 9.05208,-334.411 L 9.38481,-332.621 z
M 9.77829,-334.262 L 9.79524,-334.258 L 10.0517,-332.791 z
M 10.5056,-334.112 L 10.5194,-334.109 L 10.7097,-332.944 z
M 11.2144,-333.966 L 11.225,-333.964 L 11.3572,-333.092 z
M -1.62129,-333.808 L -1.60988,-333.884 L -0.200348,-329.282 z
M 11.9049,-333.824 L 11.9124,-333.823 L 11.9961,-333.223 z
M 12.5777,-333.686 L 12.582,-333.685 L 12.6257,-333.342 z
M 13.2331,-333.551 L 13.2344,-333.551 L 13.2458,-333.451 z
M -1.92709,-331.785 L -1.92021,-331.831 L -1.01132,-328.935 z
M 29.6037,-330.183 L 29.6042,-330.183 L 29.5909,-330.161 z
M 30.0807,-330.085 L 30.0867,-330.084 L 29.9521,-329.868 z
M 30.5694,-329.985 L 30.5812,-329.982 L 30.3082,-329.566 z
M 31.0709,-329.881 L 31.0889,-329.878 L 30.659,-329.253 z
M -2.22978,-329.782 L -2.22701,-329.801 L -1.83484,-328.58 z
M 31.5862,-329.775 L 31.6108,-329.77 L 31.0038,-328.929 z
M 32.1166,-329.666 L 32.1483,-329.66 L 31.3436,-328.596 z
M 32.6631,-329.554 L 32.7023,-329.546 L 31.6781,-328.251 z
M 33.2269,-329.438 L 33.274,-329.428 L 32.0076,-327.897 z
M 33.8092,-329.318 L 33.8646,-329.307 L 32.3315,-327.531 z
M 34.411,-329.194 L 34.4751,-329.181 L 32.6514,-327.156 z
M 35.0335,-329.066 L 35.1066,-329.051 L 32.966,-326.77 z
M 35.6778,-328.934 L 35.7604,-328.917 L 33.2758,-326.375 z
M 36.3449,-328.796 L 36.4374,-328.777 L 33.5805,-325.968 z
M 37.036,-328.654 L 37.1387,-328.633 L 33.8817,-325.552 z
M 37.7521,-328.507 L 37.8653,-328.484 L 34.1773,-325.126 z
M 38.4942,-328.354 L 38.6183,-328.329 L 34.4705,-324.691 z
M 39.2633,-328.196 L 39.3985,-328.168 L 34.7574,-324.244 z
M 40.0605,-328.032 L 40.207,-328.002 L 35.0416,-323.788 z
M 40.8866,-327.862 L 41.0447,-327.83 L 35.3218,-323.322 z
M 1.57053,-150.025 L 3.13951,-150.099 L 4.70541,-150.222 L 6.26665,-150.394 L 7.82172,-150.616 L 9.36906,-150.886
 L 10.9072,-151.204 L 12.4345,-151.571 L 13.9496,-151.985 L 15.4508,-152.447 L 16.9369,-152.956 L 18.4062,-153.511
 L 19.8574,-154.112 L 21.289,-154.759 L 22.6995,-155.45 L 24.0877,-156.185 L 25.4521,-156.963 L 26.7913,-157.784
 L 28.1042,-158.646 L 29.3893,-159.549 L 30.6453,-160.492 L 31.8712,-161.474 L 33.0656,-162.494 L 34.2273,-163.552
 L 35.3553,-164.645 L 36.4484,-165.773 L 37.5055,-166.934 L 38.5257,-168.129 L 39.5077,-169.355 L 40.4508,-170.611
 L 41.354,-171.896 L 42.2164,-173.209 L 43.0371,-174.548 L 43.8153,-175.912 L 44.5503,-177.3 L 45.2413,-178.711
 L 45.8877,-180.143 L 46.4888,-181.594 L 47.044,-183.063 L 47.5528,-184.549 L 48.0147,-186.05 L 48.4292,-187.566
 L 48.7958,-189.093 L 49.1143,-190.631 L 49.3844,-192.178 L 49.6057,-193.733 L 49.7781,-195.295 L 49.9013,-196.86
 L 49.9753,-198.429 L 50,-200 L 49.9753,-201.571 L 49.9013,-203.14 L 49.7781,-204.705 L 49.6057,-206.267
 L 49.3844,-207.822 L 49.1143,-209.369 L 48.7958,-210.907 L 48.4292,-212.434 L 48.0147,-213.95 L 47.5528,-215.451
 L 47.044,-216.937 L 46.4888,-218.406 L 45.8877,-219.857 L 45.2413,-221.289 L 44.5503,-222.7 L 43.8153,-224.088
 L 43.0371,-225.452 L 42.2164,-226.791 L 41.354,-228.104 L 40.4508,-229.389 L 39.5077,-230.645 L 38.5257,-231.871
 L 37.5055,-233.066 L 36.4484,-234.227 L 35.3553,-235.355 L 34.2273,-236.448 L 33.0656,-237.506 L 31.8712,-238.526
 L 30.6453,-239.508 L 29.3893,-240.451 L 28.1042,-241.354 L 26.7913,-242.216 L 25.4521,-243.037 L 24.0877,-243.815
 L 22.6995,-244.55 L 21.289,-245.241 L 19.8574,-245.888 L 18.4062,-246.489 L 16.9369,-247.044 L 15.4508,-247.553
 L 13.9496,-248.015 L 12.4345,-248.429 L 10.9072,-248.796 L 9.36906,-249.114 L 7.82172,-249.384 L 6.26665,-249.606
 L 4.70541,-249.778 L 3.13951,-249.901 L 1.57053,-249.975 L 0,-250 L -1.57053,-249.975 L -3.13951,-249.901
 L -4.70541,-249.778 L -6.26665,-249.606 L -7.82172,-249.384 L -9.36906,-249.114 L -10.9072,-248.796 L -12.4345,-248.429
 L -13.9496,-248.015 L -15.4508,-247.553 L -16.9369,-247.044 L -18.4062,-246.489 L -19.8574,-245.888 L -21.289,-245.241
 L -22.6995,-244.55 L -24.0877,-243.815 L -25.4521,-243.037 L -26.7913,-242.216 L -28.1042,-241.354 L -29.3893,-240.451
 L -30.6453,-239.508 L -31.8712,-238.526 L -33.0656,-237.506 L -34.2273,-236.448 L -35.3553,-235.355 L -36.4484,-234.227
 L -37.5055,-233.066 L -38.5257,-231.871 L -39.5077,-230.645 L -40.4508,-229.389 L -41.354,-228.104 L -42.2164,-226.791
 L -43.0371,-225.452 L -43.8153,-224.088 L -44.5503,-222.7 L -45.2413,-221.289 L -45.8877,-219.857 L -46.4888,-218.406
 L -47.044,-216.937 L -47.5528,-215.451 L -48.0147,-213.95 L -48.4292,-212.434 L -48.7958,-210.907 L -49.1143,-209.369
 L -49.3844,-207.822 L -49.6057,-206.267 L -49.7781,-204.705 L -49.9013,-203.14 L -49.9753,-201.571 L -50,-200
 L -49.9753,-198.429 L -49.9013,-196.86 L -49.7781,-195.295 L -49.6057,-193.733 L -49.3844,-192.178 L -49.1143,-190.631
 L -48.7958,-189.093 L -48.4292,-187.566 L -48.0147,-186.05 L -47.5528,-184.549 L -47.044,-183.063 L -46.4888,-181.594
 L -45.8877,-180.143 L -45.2413,-178.711 L -44.5503,-177.3 L -43.8153,-175.912 L -43.0371,-174.548 L -42.2164,-173.209
 L -41.354,-171.896 L -40.4508,-170.611 L -39.5077,-169.355 L -38.5257,-168.129 L -37.5055,-166.934 L -36.4484,-165.773
 L -35.3553,-164.645 L -34.2273,-163.552 L -33.0656,-162.494 L -31.8712,-161.474 L -30.6453,-160.492 L -29.3893,-159.549
 L -28.1042,-158.646 L -26.7913,-157.784 L -25.4521,-156.963 L -24.0877,-156.185 L -22.6995,-155.45 L -21.289,-154.759
 L -19.8574,-154.112 L -18.4062,-153.511 L -16.9369,-152.956 L -15.4508,-152.447 L -13.9496,-151.985 L -12.4345,-151.571
 L -10.9072,-151.204 L -9.36906,-150.886 L -7.82172,-150.616 L -6.26665,-150.394 L -4.70541,-150.222 L -3.13951,-150.099
 L -1.57053,-150.025 L 0,-150 z
M -1.41348,-184.511 L -2.82556,-184.544 L -4.23486,-184.6 L -5.63998,-184.677 L -7.03955,-184.777 L -8.43214,-184.899
 L -9.81644,-185.042 L -11.191,-185.207 L -12.5546,-185.393 L -13.9058,-185.601 L -15.2432,-185.83 L -16.5656,-186.08
 L -17.8716,-186.351 L -19.1601,-186.641 L -20.4296,-186.952 L -21.6789,-187.283 L -22.9069,-187.633 L -24.1122,-188.003
 L -25.2937,-188.391 L -26.4503,-188.797 L -27.5808,-189.222 L -28.6841,-189.663 L -29.759,-190.123 L -30.8046,-190.598
 L -31.8198,-191.09 L -32.8036,-191.598 L -33.755,-192.12 L -34.6731,-192.658 L -35.557,-193.21 L -36.4058,-193.775
 L -37.2186,-194.353 L -37.9948,-194.944 L -38.7334,-195.547 L -39.4338,-196.161 L -40.0953,-196.785 L -40.7172,-197.42
 L -41.299,-198.064 L -41.8399,-198.717 L -42.3396,-199.378 L -42.7975,-200.047 L -43.2132,-200.723 L -43.5862,-201.404
 L -43.9162,-202.092 L -44.2029,-202.784 L -44.446,-203.48 L -44.6452,-204.18 L -44.8003,-204.883 L -44.9112,-205.587
 L -44.9778,-206.293 L -45,-207 L -44.9778,-207.707 L -44.9112,-208.413 L -44.8003,-209.117 L -44.6452,-209.82
 L -44.446,-210.52 L -44.2029,-211.216 L -43.9162,-211.908 L -43.5862,-212.596 L -43.2132,-213.277 L -42.7975,-213.953
 L -42.3396,-214.622 L -41.8399,-215.283 L -41.299,-215.936 L -40.7172,-216.58 L -40.0953,-217.215 L -39.4338,-217.839
 L -38.7334,-218.453 L -37.9948,-219.056 L -37.2186,-219.647 L -36.4058,-220.225 L -35.557,-220.79 L -34.6731,-221.342
 L -33.755,-221.88 L -32.8036,-222.402 L -31.8198,-222.91 L -30.8046,-223.402 L -29.759,-223.877 L -28.6841,-224.337
 L -27.5808,-224.778 L -26.4503,-225.203 L -25.2937,-225.609 L -24.1122,-225.997 L -22.9069,-226.367 L -21.6789,-226.717
 L -20.4296,-227.048 L -19.1601,-227.359 L -17.8716,-227.649 L -16.5656,-227.92 L -15.2432,-228.17 L -13.9058,-228.399
 L -12.5546,-228.607 L -11.191,-228.793 L -9.81644,-228.958 L -8.43214,-229.101 L -7.03955,-229.223 L -5.63998,-229.323
 L -4.23486,-229.4 L -2.82556,-229.456 L -1.41348,-229.489 L 0,-229.5 L 1.41348,-229.489 L 2.82556,-229.456
 L 4.23486,-229.4 L 5.63998,-229.323 L 7.03955,-229.223 L 8.43214,-229.101 L 9.81644,-228.958 L 11.191,-228.793
 L 12.5546,-228.607 L 13.9058,-228.399 L 15.2432,-228.17 L 16.5656,-227.92 L 17.8716,-227.649 L 19.1601,-227.359
 L 20.4296,-227.048 L 21.6789,-226.717 L 22.9069,-226.367 L 24.1122,-225.997 L 25.2937,-225.609 L 26.4503,-225.203
 L 27.5808,-224.778 L 28.6841,-224.337 L 29.759,-223.877 L 30.8046,-223.402 L 31.8198,-222.91 L 32.8036,-222.402
 L 33.755,-221.88 L 34.6731,-221.342 L 35.557,-220.79 L 36.4058,-220.225 L 37.2186,-219.647 L 37.9948,-219.056
 L 38.7334,-218.453 L 39.4338,-217.839 L 40.0953,-217.215 L 40.7172,-216.58 L 41.299,-215.936 L 41.8399,-215.283
 L 42.3396,-214.622 L 42.7975,-213.953 L 43.2132,-213.277 L 43.5862,-212.596 L 43.9162,-211.908 L 44.2029,-211.216
 L 44.446,-210.52 L 44.6452,-209.82 L 44.8003,-209.117 L 44.9112,-208.413 L 44.9778,-207.707 L 45,-207
 L 44.9778,-206.293 L 44.9112,-205.587 L 44.8003,-204.883 L 44.6452,-204.18 L 44.446,-203.48 L 44.2029,-202.784
 L 43.9162,-202.092 L 43.5862,-201.404 L 43.2132,-200.723 L 42.7975,-200.047 L 42.3396,-199.378 L 41.8399,-198.717
 L 41.299,-198.064 L 40.7172,-197.42 L 40.0953,-196.785 L 39.4338,-196.161 L 38.7334,-195.547 L 37.9948,-194.944
 L 37.2186,-194.353 L 36.4058,-193.775 L 35.557,-193.21 L 34.6731,-192.658 L 33.755,-192.12 L 32.8036,-191.598
 L 31.8198,-191.09 L 30.8046,-190.598 L 29.759,-190.123 L 28.6841,-189.663 L 27.5808,-189.222 L 26.4503,-188.797
 L 25.2937,-188.391 L 24.1122,-188.003 L 22.9069,-187.633 L 21.6789,-187.283 L 20.4296,-186.952 L 19.1601,-186.641
 L 17.8716,-186.351 L 16.5656,-186.08 L 15.2432,-185.83 L 13.9058,-185.601 L 12.5546,-185.393 L 11.191,-185.207
 L 9.81644,-185.042 L 8.43214,-184.899 L 7.03955,-184.777 L 5.63998,-184.677 L 4.23486,-184.6 L 2.82556,-184.544
 L 1.41348,-184.511 L 0,-184.5 z
M 1.57053,-40.0247 L 3.13951,-40.0987 L 4.70541,-40.2219 L 6.26665,-40.3943 L 7.82172,-40.6156 L 9.36906,-40.8857
 L 10.9072,-41.2042 L 12.4345,-41.5708 L 13.9496,-41.9853 L 15.4508,-42.4472 L 16.9369,-42.956 L 18.4062,-43.5112
 L 19.8574,-44.1123 L 21.289,-44.7587 L 22.6995,-45.4497 L 24.0877,-46.1847 L 25.4521,-46.9629 L 26.7913,-47.7836
 L 28.1042,-48.646 L 29.3893,-49.5492 L 30.6453,-50.4923 L 31.8712,-51.4743 L 33.0656,-52.4945 L 34.2273,-53.5516
 L 35.3553,-54.6447 L 36.4484,-55.7727 L 37.5055,-56.9344 L 38.5257,-58.1288 L 39.5077,-59.3547 L 40.4508,-60.6107
 L 41.354,-61.8958 L 42.2164,-63.2087 L 43.0371,-64.5479 L 43.8153,-65.9123 L 44.5503,-67.3005 L 45.2413,-68.711
 L 45.8877,-70.1426 L 46.4888,-71.5938 L 47.044,-73.0631 L 47.5528,-74.5492 L 48.0147,-76.0504 L 48.4292,-77.5655
 L 48.7958,-79.0928 L 49.1143,-80.6309 L 49.3844,-82.1783 L 49.6057,-83.7334 L 49.7781,-85.2946 L 49.9013,-86.8605
 L 49.9753,-88.4295 L 50,-90 L 49.9753,-91.5705 L 49.9013,-93.1395 L 49.7781,-94.7054 L 49.6057,-96.2666
 L 49.3844,-97.8217 L 49.1143,-99.3691 L 48.7958,-100.907 L 48.4292,-102.434 L 48.0147,-103.95 L 47.5528,-105.451
 L 47.044,-106.937 L 46.4888,-108.406 L 45.8877,-109.857 L 45.2413,-111.289 L 44.5503,-112.7 L 43.8153,-114.088
 L 43.0371,-115.452 L 42.2164,-116.791 L 41.354,-118.104 L 40.4508,-119.389 L 39.5077,-120.645 L 38.5257,-121.871
 L 37.5055,-123.066 L 36.4484,-124.227 L 35.3553,-125.355 L 34.2273,-126.448 L 33.0656,-127.506 L 31.8712,-128.526
 L 30.6453,-129.508 L 29.3893,-130.451 L 28.1042,-131.354 L 26.7913,-132.216 L 25.4521,-133.037 L 24.0877,-133.815
 L 22.6995,-134.55 L 21.289,-135.241 L 19.8574,-135.888 L 18.4062,-136.489 L 16.9369,-137.044 L 15.4508,-137.553
 L 13.9496,-138.015 L 12.4345,-138.429 L 10.9072,-138.796 L 9.36906,-139.114 L 7.82172,-139.384 L 6.26665,-139.606
 L 4.70541,-139.778 L 3.13951,-139.901 L 1.57053,-139.975 L 0,-140 L -1.57053,-139.975 L -3.13951,-139.901
 L -4.70541,-139.778 L -6.26665,-139.606 L -7.82172,-139.384 L -9.36906,-139.114 L -10.9072,-138.796 L -12.4345,-138.429
 L -13.9496,-138.015 L -15.4508,-137.553 L -16.9369,-137.044 L -18.4062,-136.489 L -19.8574,-135.888 L -21.289,-135.241
 L -22.6995,-134.55 L -24.0877,-133.815 L -25.4521,-133.037 L -26.7913,-132.216 L -28.1042,-131.354 L -29.3893,-130.451
 L -30.6453,-129.508 L -31.8712,-128.526 L -33.0656,-127.506 L -34.2273,-126.448 L -35.3553,-125.355 L -36.4484,-124.227
 L -37.5055,-123.066 L -38.5257,-121.871 L -39.5077,-120.645 L -40.4508,-119.389 L -41.354,-118.104 L -42.2164,-116.791
 L -43.0371,-115.452 L -43.8153,-114.088 L -44.5503,-112.7 L -45.2413,-111.289 L -45.8877,-109.857 L -46.4888,-108.406
 L -47.044,-106.937 L -47.5528,-105.451 L -48.0147,-103.95 L -48.4292,-102.434 L -48.7958,-100.907 L -49.1143,-99.3691
 L -49.3844,-97.8217 L -49.6057,-96.2666 L -49.7781,-94.7054 L -49.9013,-93.1395 L -49.9753,-91.5705 L -50,-90
 L -49.9753,-88.4295 L -49.9013,-86.8605 L -49.7781,-85.2946 L -49.6057,-83.7334 L -49.3844,-82.1783 L -49.1143,-80.6309
 L -48.7958,-79.0928 L -48.4292,-77.5655 L -48.0147,-76.0504 L -47.5528,-74.5492 L -47.044,-73.0631 L -46.4888,-71.5938
 L -45.8877,-70.1426 L -45.2413,-68.711 L -44.5503,-67.3005 L -43.8153,-65.9123 L -43.0371,-64.5479 L -42.2164,-63.2087
 L -41.354,-61.8958 L -40.4508,-60.6107 L -39.5077,-59.3547 L -38.5257,-58.1288 L -37.5055,-56.9344 L -36.4484,-55.7727
 L -35.3553,-54.6447 L -34.2273,-53.5516 L -33.0656,-52.4945 L -31.8712,-51.4743 L -30.6453,-50.4923 L -29.3893,-49.5492
 L -28.1042,-48.646 L -26.7913,-47.7836 L -25.4521,-46.9629 L -24.0877,-46.1847 L -22.6995,-45.4497 L -21.289,-44.7587
 L -19.8574,-44.1123 L -18.4062,-43.5112 L -16.9369,-42.956 L -15.4508,-42.4472 L -13.9496,-41.9853 L -12.4345,-41.5708
 L -10.9072,-41.2042 L -9.36906,-40.8857 L -7.82172,-40.6156 L -6.26665,-40.3943 L -4.70541,-40.2219 L -3.13951,-40.0987
 L -1.57053,-40.0247 L 0,-40 z
M -1.41348,-74.5111 L -2.82556,-74.5444 L -4.23486,-74.5999 L -5.63998,-74.6774 L -7.03955,-74.777 L -8.43214,-74.8985
 L -9.81644,-75.0419 L -11.191,-75.2069 L -12.5546,-75.3934 L -13.9058,-75.6012 L -15.2432,-75.8302 L -16.5656,-76.08
 L -17.8716,-76.3505 L -19.1601,-76.6414 L -20.4296,-76.9524 L -21.6789,-77.2831 L -22.9069,-77.6333 L -24.1122,-78.0026
 L -25.2937,-78.3907 L -26.4503,-78.7971 L -27.5808,-79.2215 L -28.6841,-79.6635 L -29.759,-80.1225 L -30.8046,-80.5982
 L -31.8198,-81.0901 L -32.8036,-81.5977 L -33.755,-82.1205 L -34.6731,-82.658 L -35.557,-83.2096 L -36.4058,-83.7748
 L -37.2186,-84.3531 L -37.9948,-84.9439 L -38.7334,-85.5466 L -39.4338,-86.1606 L -40.0953,-86.7852 L -40.7172,-87.42
 L -41.299,-88.0642 L -41.8399,-88.7172 L -42.3396,-89.3784 L -42.7975,-90.0471 L -43.2132,-90.7227 L -43.5862,-91.4045
 L -43.9162,-92.0918 L -44.2029,-92.7839 L -44.446,-93.4802 L -44.6452,-94.18 L -44.8003,-94.8826 L -44.9112,-95.5872
 L -44.9778,-96.2932 L -45,-97 L -44.9778,-97.7067 L -44.9112,-98.4128 L -44.8003,-99.1174 L -44.6452,-99.82
 L -44.446,-100.52 L -44.2029,-101.216 L -43.9162,-101.908 L -43.5862,-102.596 L -43.2132,-103.277 L -42.7975,-103.953
 L -42.3396,-104.622 L -41.8399,-105.283 L -41.299,-105.936 L -40.7172,-106.58 L -40.0953,-107.215 L -39.4338,-107.839
 L -38.7334,-108.453 L -37.9948,-109.056 L -37.2186,-109.647 L -36.4058,-110.225 L -35.557,-110.79 L -34.6731,-111.342
 L -33.755,-111.88 L -32.8036,-112.402 L -31.8198,-112.91 L -30.8046,-113.402 L -29.759,-113.877 L -28.6841,-114.337
 L -27.5808,-114.778 L -26.4503,-115.203 L -25.2937,-115.609 L -24.1122,-115.997 L -22.9069,-116.367 L -21.6789,-116.717
 L -20.4296,-117.048 L -19.1601,-117.359 L -17.8716,-117.649 L -16.5656,-117.92 L -15.2432,-118.17 L -13.9058,-118.399
 L -12.5546,-118.607 L -11.191,-118.793 L -9.81644,-118.958 L -8.43214,-119.101 L -7.03955,-119.223 L -5.63998,-119.323
 L -4.23486,-119.4 L -2.82556,-119.456 L -1.41348,-119.489 L 0,-119.5 L 1.41348,-119.489 L 2.82556,-119.456
 L 4.23486,-119.4 L 5.63998,-119.323 L 7.03955,-119.223 L 8.43214,-119.101 L 9.81644,-118.958 L 11.191,-118.793
 L 12.5546,-118.607 L 13.9058,-118.399 L 15.2432,-118.17 L 16.5656,-117.92 L 17.8716,-117.649 L 19.1601,-117.359
 L 20.4296,-117.048 L 21.6789,-116.717 L 22.9069,-116.367 L 24.1122,-115.997 L 25.2937,-115.609 L 26.4503,-115.203
 L 27.5808,-114.778 L 28.6841,-114.337 L 29.759,-113.877 L 30.8046,-113.402 L 31.8198,-112.91 L 32.8036,-112.402
 L 33.755,-111.88 L 34.6731,-111.342 L 35.557,-110.79 L 36.4058,-110.225 L 37.2186,-109.647 L 37.9948,-109.056
 L 38.7334,-108.453 L 39.4338,-107.839 L 40.0953,-107.215 L 40.7172,-106.58 L 41.299,-105.936 L 41.8399,-105.283
 L 42.3396,-104.622 L 42.7975,-103.953 L 43.2132,-103.277 L 43.5862,-102.596 L 43.9162,-101.908 L 44.2029,-101.216
 L 44.446,-100.52 L 44.6452,-99.82 L 44.8003,-99.1174 L 44.9112,-98.4128 L 44.9778,-97.7067 L 45,-97
 L 44.9778,-96.2932 L 44.9112,-95.5872 L 44.8003,-94.8826 L 44.6452,-94.18 L 44.446,-93.4802 L 44.2029,-92.7839
 L 43.9162,-92.0918 L 43.5862,-91.4045 L 43.2132,-90.7227 L 42.7975,-90.0471 L 42.3396,-89.3784 L 41.8399,-88.7172
 L 41.299,-88.0642 L 40.7172,-87.42 L 40.0953,-86.7852 L 39.4338,-86.1606 L 38.7334,-85.5466 L 37.9948,-84.9439
 L 37.2186,-84.3531 L 36.4058,-83.7748 L 35.557,-83.2096 L 34.6731,-82.658 L 33.755,-82.1205 L 32.8036,-81.5977
 L 31.8198,-81.0901 L 30.8046,-80.5982 L 29.759,-80.1225 L 28.6841,-79.6635 L 27.5808,-79.2215 L 26.4503,-78.7971
 L 25.2937,-78.3907 L 24.1122,-78.0026 L 22.9069,-77.6333 L 21.6789,-77.2831 L 20.4296,-76.9524 L 19.1601,-76.6414
 L 17.8716,-76.3505 L 16.5656,-76.08 L 15.2432,-75.8302 L 13.9058,-75.6012 L 12.5546,-75.3934 L 11.191,-75.2069
 L 9.81644,-75.0419 L 8.43214,-74.8985 L 7.03955,-74.777 L 5.63998,-74.6774 L 4.23486,-74.5999 L 2.82556,-74.5444
 L 1.41348,-74.5111 L 0,-74.5 z
M -2.30139,52.4169 L -1.80128,61.1465 L -0.454681,61.0415 L -0.954834,52.3111 L -0.254456,61.0228 L 1.0889,60.8757
 L 0.388519,52.164 L 1.28931,60.8506 L 2.62836,60.6616 L 1.72752,51.9751 L 2.82895,60.6301 L 4.1626,60.3991
 L 3.06117,51.7441 L 4.36346,60.3611 L 5.69057,60.088 L 4.38823,51.4708 L 5.89171,60.0434 L 7.2113,59.7284
 L 5.70805,51.1571 L 7.41267,59.6769 L 8.72362,59.3199 L 7.01881,50.799 L 8.92526,59.2615 L 10.2265,58.8625
 L 8.32019,50.4009 L 10.4283,58.7971 L 11.7188,58.3561 L 9.61044,49.959 L 11.9208,58.2834 L 13.1994,57.8004
 L 10.8893,49.4771 L 13.4016,57.7203 L 14.6672,57.1953 L 12.1545,48.951 L 14.8694,57.1076 L 16.1209,56.5406
 L 13.4062,48.3843 L 16.3231,56.445 L 17.5596,55.836 L 14.6426,47.7753 L 17.7615,55.7324 L 18.9817,55.0814
 L 15.8627,47.124 L 19.1833,54.9696 L 20.3863,54.2766 L 17.0656,46.431 L 20.5873,54.1564 L 21.7719,53.4214
 L 18.2502,45.6959 L 21.9721,53.2925 L 23.1373,52.5155 L 19.4153,44.9189 L 23.3364,52.3779 L 24.481,51.5589
 L 20.5596,44.0994 L 24.6789,51.4123 L 25.8019,50.5513 L 21.6832,43.2394 L 25.998,50.3958 L 27.0984,49.4927
 L 22.7833,42.336 L 27.2925,49.328 L 28.369,48.3829 L 23.8599,41.391 L 28.5607,48.209 L 29.6125,47.222
 L 24.9117,40.404 L 29.8013,47.0387 L 30.8271,46.0098 L 25.9375,39.375 L 31.0127,45.8173 L 32.0115,44.7463
 L 26.9363,38.304 L 32.1933,44.5447 L 33.164,43.4317 L 27.9074,37.1913 L 33.3416,43.2212 L 34.2832,42.0662
 L 28.849,36.0364 L 34.456,41.8468 L 35.3673,40.6498 L 29.7603,34.8394 L 35.5349,40.4219 L 36.4149,39.1829
 L 30.64,33.6 L 36.5768,38.9468 L 37.4244,37.6658 L 31.4872,32.3186 L 37.5801,37.422 L 38.3942,36.099
 L 32.3017,30.996 L 38.5432,35.8478 L 39.3227,34.4828 L 33.081,29.6307 L 39.4646,34.2248 L 40.2085,32.8178
 L 33.825,28.2238 L 40.3427,32.5537 L 41.0499,31.1047 L 34.5325,26.775 L 41.1762,30.835 L 41.8457,29.344
 L 35.2021,25.2841 L 41.9637,29.0695 L 42.5942,27.5365 L 35.8327,23.7511 L 42.7037,27.2579 L 43.2943,25.6829
 L 36.423,22.176 L 43.395,25.4011 L 43.9445,23.784 L 36.9726,20.559 L 44.0363,23.4996 L 44.5437,21.8407
 L 37.4798,18.8999 L 44.6265,21.5546 L 45.0907,19.8536 L 37.9442,17.199 L 45.1644,19.5667 L 45.5844,17.8237
 L 38.3641,15.456 L 45.649,17.5367 L 46.0236,15.7517 L 38.7389,13.671 L 46.0793,15.4655 L 46.4075,13.6385
 L 39.067,11.844 L 46.4544,13.3537 L 46.735,11.4847 L 39.3475,9.97496 L 46.7733,11.2021 L 47.0054,9.29115
 L 39.5795,8.064 L 47.0354,9.01147 L 47.2177,7.05847 L 39.7612,6.1109 L 47.2397,6.78226 L 47.3713,4.78729
 L 39.8935,4.11598 L 47.3856,4.51518 L 47.4653,2.47818 L 39.9724,2.07892 L 47.4723,2.21062 L 47.4991,0.131638
 L 40,-0 L 47.4991,-0.130783 L 47.4719,-2.2518 L 42.8973,-2.17201 L 46.3096,-4.73009 L 45.9942,-5.30287
 L 41.7921,-2.15273 L 41.7496,-2.15198 L 45.9571,-5.36952 L 45.6407,-5.93279 L 40.672,-2.13318 L 40.6449,-2.13271
 L 45.6015,-6.00179 L 45.2839,-6.55545 L 39.5946,-2.11438 L 39.5829,-2.11417 L 45.2425,-6.62691 L 44.9238,-7.17094
 L 38.7329,-2.23454 L 44.8801,-7.24481 L 44.5601,-7.77913 L 38.4094,-2.76604 L 44.5139,-7.85545 L 44.1926,-8.38
 L 38.0905,-3.29262 L 44.1438,-8.45872 L 43.821,-8.9735 L 37.7678,-3.8074 L 43.7695,-9.05463 L 43.4452,-9.55946
 L 37.4444,-4.31305 L 43.3909,-9.64305 L 43.065,-10.138 L 37.1187,-4.80817 L 43.0076,-10.2239 L 42.68,-10.7088
 L 36.79,-5.29198 L 42.6196,-10.7971 L 42.2901,-11.2719 L 36.4605,-5.76675 L 42.2264,-11.3625 L 41.8951,-11.8271
 L 36.1302,-6.23235 L 41.828,-11.92 L 41.4947,-12.3744 L 35.7959,-6.68587 L 41.424,-12.4694 L 41.0887,-12.9136
 L 35.4614,-7.13084 L 41.0143,-13.0107 L 40.6768,-13.4446 L 35.1224,-7.56311 L 40.5985,-13.5436 L 40.2587,-13.967
 L 34.7833,-7.98737 L 40.1162,-14 L 40.2746,-14 L 40.2746,-31.5 L -11,-31.5 L -11,-23.1731
 L -18.5,-23.1731 L -18.5,-0 L -12.2672,-0 L -7.60838,7.89865 L -6.76866,7.22446 L -5.94963,6.57446
 L -5.14479,5.94325 L -4.3454,5.32407 L -3.56747,4.72923 L -2.79175,4.14386 L -2.03291,3.57904 L -1.27769,3.02501
 L -0.541931,2.49324 L 0.1866,1.97473 L 0.906204,1.47079 L 1.61249,0.984482 L 2.31131,0.511566 L 2.99214,0.0591736
 L 3.67082,-0.383179 L 4.33412,-0.80722 L 4.98882,-1.21706 L 5.63362,-1.61205 L 6.26556,-1.99054 L 6.88995,-2.35567
 L 7.5007,-2.70409 L 8.10133,-3.03777 L 8.68974,-3.35596 L 9.27129,-3.66139 L 9.8396,-3.95096 L 10.394,-4.22455
 L 10.9444,-4.48705 L 11.479,-4.73303 L 12.0068,-4.96678 L 12.5177,-5.1841 L 13.0226,-5.38982 L 13.5171,-5.58218
 L 13.997,-5.75986 L 14.47,-5.9259 L 14.928,-6.07773 L 15.3777,-6.21782 L 15.8195,-6.34647 L 16.2456,-6.46161
 L 16.6638,-6.5657 L 17.0726,-6.65857 L 17.4693,-6.73991 L 17.8541,-6.81013 L 18.2289,-6.86984 L 18.5962,-6.91978
 L 18.9525,-6.95963 L 19.2995,-6.98996 L 19.6349,-7.01089 L 19.9634,-7.02312 L 20.2808,-7.02664 L 20.5911,-7.02194
 L 20.8928,-7.00929 L 21.187,-6.98894 L 21.4725,-6.96123 L 21.7519,-6.92619 L 22.0248,-6.88416 L 22.2921,-6.83519
 L 22.5521,-6.7798 L 22.809,-6.71732 L 23.0596,-6.6487 L 23.3072,-6.57323 L 23.5511,-6.49115 L 23.7911,-6.40265
 L 24.0305,-6.30663 L 24.2668,-6.20409 L 24.5012,-6.09456 L 24.7359,-5.9769 L 24.9694,-5.85188 L 25.202,-5.71927
 L 25.4349,-5.57834 L 25.6687,-5.42859 L 25.9038,-5.26959 L 26.1384,-5.10239 L 26.3758,-4.92455 L 26.6127,-4.73831
 L 26.8537,-4.53992 L 27.0943,-4.33292 L 27.3381,-4.11385 L 27.5819,-3.88564 L 27.8295,-3.64435 L 28.0775,-3.39319
 L 28.3282,-3.12952 L 28.5816,-2.85326 L 28.8345,-2.56769 L 29.0911,-2.26782 L 29.3497,-1.95572 L 29.6082,-1.63351
 L 29.8689,-1.29845 L 30.1329,-0.948746 L 30.3966,-0.589111 L 30.6633,-0.215012 L 30.932,0.172226 L 31.1985,0.566635
 L 31.4678,0.975616 L 31.7395,1.39859 L 32.0123,1.83357 L 32.2865,2.28128 L 32.4469,2.5491 L 32.4065,3.58171
 L 32.293,5.30206 L 32.1367,6.97644 L 31.9388,8.60623 L 31.7007,10.1923 L 31.4238,11.7336 L 31.1096,13.2305
 L 30.7587,14.6872 L 30.373,16.1006 L 29.9525,17.4752 L 29.4993,18.809 L 29.0137,20.1041 L 28.4968,21.3605
 L 27.95,22.5786 L 27.3732,23.7604 L 26.7674,24.9061 L 26.1326,26.0175 L 25.4711,27.0926 L 24.7821,28.1337
 L 24.0676,29.1397 L 23.3266,30.113 L 22.5597,31.0538 L 21.7687,31.9608 L 20.9537,32.8346 L 20.1153,33.6756
 L 19.254,34.484 L 18.3701,35.2598 L 17.4656,36.0021 L 16.5391,36.7124 L 15.5931,37.3893 L 14.627,38.0336
 L 13.6436,38.6438 L 12.6424,39.2205 L 11.6241,39.7638 L 10.5899,40.2732 L 9.54031,40.7487 L 8.47771,41.1896
 L 7.40077,41.5964 L 6.31143,41.9687 L 5.21312,42.3055 L 4.10423,42.6075 L 2.98399,42.8749 L 1.85986,43.1061
 L 0.727356,43.3024 L -0.412384,43.4632 L -1.55396,43.5881 L -2.70258,43.6777 L -3.8512,43.7313 L -5.00005,43.7492
 L -6.1488,43.7313 L -7.29752,43.6777 L -8.446,43.5881 L -9.58757,43.4632 L -10.7273,43.3024 L -11.8598,43.1061
 L -12.9839,42.8749 L -14.1042,42.6075 L -15.2131,42.3055 L -16.3115,41.9687 L -17.4007,41.5964 L -18.4777,41.1896
 L -19.5403,40.7487 L -20.59,40.2732 L -21.6241,39.7638 L -22.6423,39.2206 L -23.6436,38.6438 L -24.627,38.0336
 L -25.5931,37.3893 L -26.5392,36.7124 L -27.4657,36.002 L -28.37,35.2599 L -29.2539,34.484 L -30.1152,33.6756
 L -30.9538,32.8345 L -31.7687,31.9608 L -32.5597,31.0538 L -33.3266,30.113 L -34.0677,29.1397 L -34.7821,28.1338
 L -35.4711,27.0925 L -36.1327,26.0175 L -36.7673,24.9062 L -37.3731,23.7604 L -37.95,22.5785 L -38.4968,21.3606
 L -39.0137,20.1041 L -39.4993,18.809 L -39.9525,17.4753 L -40.373,16.1006 L -40.7587,14.6872 L -41.1096,13.2305
 L -41.4238,11.7337 L -41.7007,10.1922 L -41.9388,8.60628 L -42.1367,6.97639 L -42.293,5.30212 L -42.4065,3.58171
 L -42.4757,1.81345 L -42.5008,-0.131638 L -57.4991,0.131638 L -57.4723,2.21062 L -49.9724,2.07892 L -57.4653,2.47818
 L -57.3856,4.51518 L -49.8935,4.11598 L -57.3713,4.78729 L -57.2397,6.78226 L -49.7612,6.1109 L -57.2177,7.05847
 L -57.0354,9.01147 L -49.5795,8.064 L -57.0054,9.29115 L -56.7733,11.2021 L -49.3475,9.97496 L -56.735,11.4847
 L -56.4544,13.3537 L -49.067,11.844 L -56.4075,13.6385 L -56.0793,15.4655 L -48.7389,13.671 L -56.0236,15.7517
 L -55.649,17.5367 L -48.3641,15.456 L -55.5844,17.8237 L -55.1644,19.5667 L -47.9442,17.1989 L -55.0907,19.8536
 L -54.6265,21.5546 L -47.4798,18.8999 L -54.5437,21.8407 L -54.0363,23.4996 L -46.9725,20.559 L -53.9445,23.784
 L -53.395,25.4011 L -46.423,22.176 L -53.2943,25.6829 L -52.7037,27.2579 L -45.8327,23.7511 L -52.5942,27.5365
 L -51.9637,29.0695 L -45.2021,25.2841 L -51.8457,29.344 L -51.1762,30.835 L -44.5325,26.775 L -51.0499,31.1047
 L -50.3427,32.5537 L -43.825,28.2238 L -50.2085,32.8178 L -49.4646,34.2248 L -43.081,29.6307 L -49.3227,34.4828
 L -48.5432,35.8478 L -42.3017,30.996 L -48.3942,36.099 L -47.5801,37.422 L -41.4872,32.3186 L -47.4244,37.6658
 L -46.5768,38.9468 L -40.64,33.6 L -46.4149,39.1829 L -45.5349,40.4219 L -39.7603,34.8394 L -45.3673,40.6498
 L -44.456,41.8468 L -38.849,36.0364 L -44.2832,42.0662 L -43.3416,43.2212 L -37.9074,37.1913 L -43.164,43.4317
 L -42.1933,44.5447 L -36.9363,38.304 L -42.0115,44.7463 L -41.0127,45.8173 L -35.9375,39.3749 L -40.8271,46.0098
 L -39.8013,47.0387 L -34.9117,40.404 L -39.6125,47.222 L -38.5607,48.209 L -33.8599,41.391 L -38.369,48.3829
 L -37.2925,49.328 L -32.7834,42.336 L -37.0984,49.4927 L -35.998,50.3958 L -31.6832,43.2394 L -35.8019,50.5513
 L -34.6789,51.4123 L -30.5596,44.0994 L -34.481,51.5589 L -33.3364,52.3779 L -29.4153,44.9189 L -33.1373,52.5155
 L -31.9721,53.2925 L -28.2502,45.6959 L -31.7719,53.4214 L -30.5873,54.1564 L -27.0656,46.431 L -30.3863,54.2766
 L -29.1833,54.9696 L -25.8627,47.124 L -28.9817,55.0814 L -27.7615,55.7324 L -24.6426,47.7753 L -27.5596,55.836
 L -26.3231,56.445 L -23.4062,48.3843 L -26.1209,56.5406 L -24.8694,57.1076 L -22.1545,48.951 L -24.6672,57.1953
 L -23.4016,57.7203 L -20.8893,49.4771 L -23.1994,57.8004 L -21.9208,58.2834 L -19.6104,49.959 L -21.7188,58.3561
 L -20.4283,58.7971 L -18.3202,50.4009 L -20.2265,58.8625 L -18.9252,59.2615 L -17.0187,50.799 L -18.7236,59.3199
 L -17.4126,59.6769 L -15.708,51.1571 L -17.2113,59.7284 L -15.8917,60.0434 L -14.3882,51.4708 L -15.6905,60.088
 L -14.3634,60.3611 L -13.0611,51.7441 L -14.1626,60.3991 L -12.8289,60.6301 L -11.7275,51.9751 L -12.6283,60.6616
 L -11.2893,60.8506 L -10.3884,52.164 L -11.0889,60.8757 L -9.7455,61.0228 L -9.04512,52.3111 L -9.54527,61.0415
 L -8.19867,61.1465 L -7.69856,52.4169 L -7.99858,61.1589 L -6.64983,61.222 L -6.34976,52.479 L -6.44978,61.2282
 L -5.09998,61.2492 L -5,52.5 L -4.89998,61.2492 L -3.55017,61.2282 L -3.65019,52.479 L -3.35013,61.222
 L -2.00137,61.1589 z
M 37.5988,-14 L 37.7361,-14 L 33.7496,-9.19476 z
M 30.3419,-14 L 30.3741,-14 L 29.74,-12.789 z
M 30.8968,-14 L 30.9366,-14 L 30.1207,-12.5177 z
M 31.4693,-14 L 31.5171,-14 L 30.4979,-12.2351 z
M 29.28,-14 L 29.2983,-14 L 28.9678,-13.2979 z
M 32.0606,-14 L 32.1168,-14 L 30.8714,-11.9407 z
M 32.6717,-14 L 32.7367,-14 L 31.2421,-11.6363 z
M 33.3038,-14 L 33.378,-14 L 31.6094,-11.3203 z
M 33.958,-14 L 34.0418,-14 L 31.9734,-10.9932 z
M 34.6354,-14 L 34.7294,-14 L 32.334,-10.6545 z
M 35.3372,-14 L 35.4414,-14 L 32.6924,-10.3062 z
M -1.82019,-14 L -1.76723,-14 L 0.761276,-8.5023 z
M -0.849731,-14 L -0.799927,-14 L 1.47369,-8.94818 z
M 0.0980682,-14 L 0.144714,-14 L 2.17815,-9.3782 z
M 1.02348,-14 L 1.06693,-14 L 2.87468,-9.79248 z
M 1.92683,-14 L 1.96703,-14 L 3.56142,-10.1955 z
M 2.8084,-14 L 2.84534,-14 L 4.24001,-10.584 z
M 28.7708,-14 L 28.7828,-14 L 28.5759,-13.5346 z
M -2.81354,-14 L -2.75746,-14 L 0.0403442,-8.04163 z
M 3.66853,-14 L 3.70218,-14 L 4.911,-10.9568 z
M 4.50752,-14 L 4.53787,-14 L 5.57475,-11.3133 z
M 5.32564,-14 L 5.35274,-14 L 6.23004,-11.6565 z
M 6.12343,-14 L 6.14719,-14 L 6.8765,-11.9883 z
M 29.8033,-14 L 29.8283,-14 L 29.3557,-13.049 z
M 36.0643,-14 L 36.1793,-14 L 33.0471,-9.9458 z
M 36.8179,-14 L 36.9438,-14 L 33.4006,-9.57677 z
M 38.4084,-14 L 38.5571,-14 L 34.0974,-8.80362 z
M 39.2471,-14 L 39.4077,-14 L 34.4426,-8.40195 z
M 28.2746,-14 L 28.2807,-14 L 28.1802,-13.7602 z
M 6.90103,-14 L 6.92154,-14 L 7.51562,-12.3047 z
M 7.65895,-14 L 7.67616,-14 L 8.14706,-12.6071 z
M 8.39751,-14 L 8.41151,-14 L 8.77228,-12.8914 z
M 9.11725,-14 L 9.12801,-14 L 9.38792,-13.1683 z
M 9.81841,-14 L 9.82596,-14 L 9.99767,-13.4263 z
M 10.5015,-14 L 10.506,-14 L 10.6,-13.671 z
M 11.167,-14 L 11.1684,-14 L 11.1944,-13.9041 z
M 27.7902,-14 L 27.7908,-14 L 27.781,-13.9751 z
M -3.5,-13.3239 L -3.5,-13.4344 L -0.68924,-7.5661 z
M -3.5,-11.2442 L -3.5,-11.321 L -1.42688,-7.07413 z
M -3.5,-9.18964 L -3.5,-9.23589 L -2.17395,-6.56859 z
M -3.5,-7.15599 L -3.5,-7.17468 L -2.93214,-6.05226 z
" stroke="black" fill="lightgray" stroke-width="0.5"/>
</svg>
