<?xml version="1.0" standalone="no"?>
<!DOCTYPE svg PUBLIC "-//W3C//DTD SVG 1.1//EN" "http://www.w3.org/Graphics/SVG/1.1/DTD/svg11.dtd">
<svg width="110mm" height="592mm" viewBox="-60 -530 110 592" xmlns="http://www.w3.org/2000/svg" version="1.1">
<title>OpenSCAD Model</title>
<path d="
M 40,-530 L 15,-530 L 15,-480 L 2.5,-480 L 2.5,-530 L -22.5,-530
 L -22.5,-480 L -35,-480 L -35,-530 L -60,-530 L -60,-455 L 40,-455
 z
M 40,-440 L 15,-440 L 15,-390 L -60,-390 L -60,-365 L 40,-365
 z
M -2.30139,-267.583 L -1.80128,-258.854 L -0.454681,-258.958 L -0.954834,-267.689 L -0.254456,-258.977 L 1.0889,-259.124
 L 0.388519,-267.836 L 1.28931,-259.149 L 2.62836,-259.338 L 1.72752,-268.025 L 2.82895,-259.37 L 4.1626,-259.601
 L 3.06117,-268.256 L 4.36346,-259.639 L 5.69057,-259.912 L 4.38823,-268.529 L 5.89171,-259.957 L 7.2113,-260.272
 L 5.70805,-268.843 L 7.41267,-260.323 L 8.72362,-260.68 L 7.01881,-269.201 L 8.92526,-260.738 L 10.2265,-261.137
 L 8.32019,-269.599 L 10.4283,-261.203 L 11.7188,-261.644 L 9.61044,-270.041 L 11.9208,-261.717 L 13.1994,-262.2
 L 10.8893,-270.523 L 13.4016,-262.28 L 14.6672,-262.805 L 12.1545,-271.049 L 14.8694,-262.892 L 16.1209,-263.459
 L 13.4062,-271.616 L 16.3231,-263.555 L 17.5596,-264.164 L 14.6426,-272.225 L 17.7615,-264.268 L 18.9817,-264.919
 L 15.8627,-272.876 L 19.1833,-265.03 L 20.3863,-265.723 L 17.0656,-273.569 L 20.5873,-265.844 L 21.7719,-266.579
 L 18.2502,-274.304 L 21.9721,-266.707 L 23.1373,-267.484 L 19.4153,-275.081 L 23.3364,-267.622 L 24.481,-268.441
 L 20.5596,-275.901 L 24.6789,-268.588 L 25.8019,-269.449 L 21.6832,-276.761 L 25.998,-269.604 L 27.0984,-270.507
 L 22.7833,-277.664 L 27.2925,-270.672 L 28.369,-271.617 L 23.8599,-278.609 L 28.5607,-271.791 L 29.6125,-272.778
 L 24.9117,-279.596 L 29.8013,-272.961 L 30.8271,-273.99 L 25.9375,-280.625 L 31.0127,-274.183 L 32.0115,-275.254
 L 26.9363,-281.696 L 32.1933,-275.455 L 33.164,-276.568 L 27.9074,-282.809 L 33.3416,-276.779 L 34.2832,-277.934
 L 28.849,-283.964 L 34.456,-278.153 L 35.3673,-279.35 L 29.7603,-285.161 L 35.5349,-279.578 L 36.4149,-280.817
 L 30.64,-286.4 L 36.5768,-281.053 L 37.4244,-282.334 L 31.4872,-287.681 L 37.5801,-282.578 L 38.3942,-283.901
 L 32.3017,-289.004 L 38.5432,-284.152 L 39.3227,-285.517 L 33.081,-290.369 L 39.4646,-285.775 L 40.2085,-287.182
 L 33.825,-291.776 L 40.3427,-287.446 L 41.0499,-288.895 L 34.5325,-293.225 L 41.1762,-289.165 L 41.8457,-290.656
 L 35.2021,-294.716 L 41.9637,-290.93 L 42.5942,-292.464 L 35.8327,-296.249 L 42.7037,-292.742 L 43.2943,-294.317
 L 36.423,-297.824 L 43.395,-294.599 L 43.9445,-296.216 L 36.9726,-299.441 L 44.0363,-296.5 L 44.5437,-298.159
 L 37.4798,-301.1 L 44.6265,-298.445 L 45.0907,-300.146 L 37.9442,-302.801 L 45.1644,-300.433 L 45.5844,-302.176
 L 38.3641,-304.544 L 45.649,-302.463 L 46.0236,-304.248 L 38.7389,-306.329 L 46.0793,-304.535 L 46.4075,-306.361
 L 39.067,-308.156 L 46.4544,-306.646 L 46.735,-308.515 L 39.3475,-310.025 L 46.7733,-308.798 L 47.0054,-310.709
 L 39.5795,-311.936 L 47.0354,-310.989 L 47.2177,-312.942 L 39.7612,-313.889 L 47.2397,-313.218 L 47.3713,-315.213
 L 39.8935,-315.884 L 47.3856,-315.485 L 47.4653,-317.522 L 39.9724,-317.921 L 47.4723,-317.789 L 47.4991,-319.868
 L 40,-320 L 47.4991,-320.131 L 47.4719,-322.252 L 42.8973,-322.172 L 46.3096,-324.73 L 45.9942,-325.303
 L 41.7921,-322.153 L 41.7496,-322.152 L 45.9571,-325.37 L 45.6407,-325.933 L 40.672,-322.133 L 40.6449,-322.133
 L 45.6015,-326.002 L 45.2839,-326.555 L 39.5946,-322.114 L 39.5829,-322.114 L 45.2425,-326.627 L 44.9238,-327.171
 L 38.7329,-322.235 L 44.8801,-327.245 L 44.5601,-327.779 L 38.4094,-322.766 L 44.5139,-327.855 L 44.1926,-328.38
 L 38.0905,-323.293 L 44.1438,-328.459 L 43.821,-328.973 L 37.7678,-323.807 L 43.7695,-329.055 L 43.4452,-329.559
 L 37.4444,-324.313 L 43.3909,-329.643 L 43.065,-330.138 L 37.1187,-324.808 L 43.0076,-330.224 L 42.68,-330.709
 L 36.79,-325.292 L 42.6196,-330.797 L 42.2901,-331.272 L 36.4605,-325.767 L 42.2264,-331.363 L 41.8951,-331.827
 L 36.1302,-326.232 L 41.828,-331.92 L 41.4947,-332.374 L 35.7959,-326.686 L 41.424,-332.469 L 41.0887,-332.914
 L 35.4614,-327.131 L 41.0143,-333.011 L 40.6768,-333.445 L 35.1224,-327.563 L 40.5985,-333.544 L 40.2587,-333.967
 L 34.7833,-327.987 L 40.1162,-334 L 40.2746,-334 L 40.2746,-351.5 L -11,-351.5 L -11,-343.173
 L -18.5,-343.173 L -18.5,-320 L -12.2672,-320 L -7.60838,-312.101 L -6.76866,-312.776 L -5.94963,-313.426
 L -5.14479,-314.057 L -4.3454,-314.676 L -3.56747,-315.271 L -2.79175,-315.856 L -2.03291,-316.421 L -1.27769,-316.975
 L -0.541931,-317.507 L 0.1866,-318.025 L 0.906204,-318.529 L 1.61249,-319.016 L 2.31131,-319.488 L 2.99214,-319.941
 L 3.67082,-320.383 L 4.33412,-320.807 L 4.98882,-321.217 L 5.63362,-321.612 L 6.26556,-321.991 L 6.88995,-322.356
 L 7.5007,-322.704 L 8.10133,-323.038 L 8.68974,-323.356 L 9.27129,-323.661 L 9.8396,-323.951 L 10.394,-324.225
 L 10.9444,-324.487 L 11.479,-324.733 L 12.0068,-324.967 L 12.5177,-325.184 L 13.0226,-325.39 L 13.5171,-325.582
 L 13.997,-325.76 L 14.47,-325.926 L 14.928,-326.078 L 15.3777,-326.218 L 15.8195,-326.346 L 16.2456,-326.462
 L 16.6638,-326.566 L 17.0726,-326.659 L 17.4693,-326.74 L 17.8541,-326.81 L 18.2289,-326.87 L 18.5962,-326.92
 L 18.9525,-326.96 L 19.2995,-326.99 L 19.6349,-327.011 L 19.9634,-327.023 L 20.2808,-327.027 L 20.5911,-327.022
 L 20.8928,-327.009 L 21.187,-326.989 L 21.4725,-326.961 L 21.7519,-326.926 L 22.0248,-326.884 L 22.2921,-326.835
 L 22.5521,-326.78 L 22.809,-326.717 L 23.0596,-326.649 L 23.3072,-326.573 L 23.5511,-326.491 L 23.7911,-326.403
 L 24.0305,-326.307 L 24.2668,-326.204 L 24.5012,-326.095 L 24.7359,-325.977 L 24.9694,-325.852 L 25.202,-325.719
 L 25.4349,-325.578 L 25.6687,-325.429 L 25.9038,-325.27 L 26.1384,-325.102 L 26.3758,-324.925 L 26.6127,-324.738
 L 26.8537,-324.54 L 27.0943,-324.333 L 27.3381,-324.114 L 27.5819,-323.886 L 27.8295,-323.644 L 28.0775,-323.393
 L 28.3282,-323.13 L 28.5816,-322.853 L 28.8345,-322.568 L 29.0911,-322.268 L 29.3497,-321.956 L 29.6082,-321.634
 L 29.8689,-321.298 L 30.1329,-320.949 L 30.3966,-320.589 L 30.6633,-320.215 L 30.932,-319.828 L 31.1985,-319.433
 L 31.4678,-319.024 L 31.7395,-318.601 L 32.0123,-318.166 L 32.2865,-317.719 L 32.4469,-317.451 L 32.4065,-316.418
 L 32.293,-314.698 L 32.1367,-313.024 L 31.9388,-311.394 L 31.7007,-309.808 L 31.4238,-308.266 L 31.1096,-306.77
 L 30.7587,-305.313 L 30.373,-303.899 L 29.9525,-302.525 L 29.4993,-301.191 L 29.0137,-299.896 L 28.4968,-298.639
 L 27.95,-297.421 L 27.3732,-296.24 L 26.7674,-295.094 L 26.1326,-293.983 L 25.4711,-292.907 L 24.7821,-291.866
 L 24.0676,-290.86 L 23.3266,-289.887 L 22.5597,-288.946 L 21.7687,-288.039 L 20.9537,-287.165 L 20.1153,-286.324
 L 19.254,-285.516 L 18.3701,-284.74 L 17.4656,-283.998 L 16.5391,-283.288 L 15.5931,-282.611 L 14.627,-281.966
 L 13.6436,-281.356 L 12.6424,-280.779 L 11.6241,-280.236 L 10.5899,-279.727 L 9.54031,-279.251 L 8.47771,-278.81
 L 7.40077,-278.404 L 6.31143,-278.031 L 5.21312,-277.695 L 4.10423,-277.393 L 2.98399,-277.125 L 1.85986,-276.894
 L 0.727356,-276.698 L -0.412384,-276.537 L -1.55396,-276.412 L -2.70258,-276.322 L -3.8512,-276.269 L -5.00005,-276.251
 L -6.1488,-276.269 L -7.29752,-276.322 L -8.446,-276.412 L -9.58757,-276.537 L -10.7273,-276.698 L -11.8598,-276.894
 L -12.9839,-277.125 L -14.1042,-277.393 L -15.2131,-277.695 L -16.3115,-278.031 L -17.4007,-278.404 L -18.4777,-278.81
 L -19.5403,-279.251 L -20.59,-279.727 L -21.6241,-280.236 L -22.6423,-280.779 L -23.6436,-281.356 L -24.627,-281.966
 L -25.5931,-282.611 L -26.5392,-283.288 L -27.4657,-283.998 L -28.37,-284.74 L -29.2539,-285.516 L -30.1152,-286.324
 L -30.9538,-287.165 L -31.7687,-288.039 L -32.5597,-288.946 L -33.3266,-289.887 L -34.0677,-290.86 L -34.7821,-291.866
 L -35.4711,-292.907 L -36.1327,-293.983 L -36.7673,-295.094 L -37.3731,-296.24 L -37.95,-297.421 L -38.4968,-298.639
 L -39.0137,-299.896 L -39.4993,-301.191 L -39.9525,-302.525 L -40.373,-303.899 L -40.7587,-305.313 L -41.1096,-306.769
 L -41.4238,-308.266 L -41.7007,-309.808 L -41.9388,-311.394 L -42.1367,-313.024 L -42.293,-314.698 L -42.4065,-316.418
 L -42.4757,-318.187 L -42.5008,-320.132 L -57.4991,-319.868 L -57.4723,-317.789 L -49.9724,-317.921 L -57.4653,-317.522
 L -57.3856,-315.485 L -49.8935,-315.884 L -57.3713,-315.213 L -57.2397,-313.218 L -49.7612,-313.889 L -57.2177,-312.942
 L -57.0354,-310.989 L -49.5795,-311.936 L -57.0054,-310.709 L -56.7733,-308.798 L -49.3475,-310.025 L -56.735,-308.515
 L -56.4544,-306.646 L -49.067,-308.156 L -56.4075,-306.361 L -56.0793,-304.535 L -48.7389,-306.329 L -56.0236,-304.248
 L -55.649,-302.463 L -48.3641,-304.544 L -55.5844,-302.176 L -55.1644,-300.433 L -47.9442,-302.801 L -55.0907,-300.146
 L -54.6265,-298.445 L -47.4798,-301.1 L -54.5437,-298.159 L -54.0363,-296.5 L -46.9725,-299.441 L -53.9445,-296.216
 L -53.395,-294.599 L -46.423,-297.824 L -53.2943,-294.317 L -52.7037,-292.742 L -45.8327,-296.249 L -52.5942,-292.464
 L -51.9637,-290.93 L -45.2021,-294.716 L -51.8457,-290.656 L -51.1762,-289.165 L -44.5325,-293.225 L -51.0499,-288.895
 L -50.3427,-287.446 L -43.825,-291.776 L -50.2085,-287.182 L -49.4646,-285.775 L -43.081,-290.369 L -49.3227,-285.517
 L -48.5432,-284.152 L -42.3017,-289.004 L -48.3942,-283.901 L -47.5801,-282.578 L -41.4872,-287.681 L -47.4244,-282.334
 L -46.5768,-281.053 L -40.64,-286.4 L -46.4149,-280.817 L -45.5349,-279.578 L -39.7603,-285.161 L -45.3673,-279.35
 L -44.456,-278.153 L -38.849,-283.964 L -44.2832,-277.934 L -43.3416,-276.779 L -37.9074,-282.809 L -43.164,-276.568
 L -42.1933,-275.455 L -36.9363,-281.696 L -42.0115,-275.254 L -41.0127,-274.183 L -35.9375,-280.625 L -40.8271,-273.99
 L -39.8013,-272.961 L -34.9117,-279.596 L -39.6125,-272.778 L -38.5607,-271.791 L -33.8599,-278.609 L -38.369,-271.617
 L -37.2925,-270.672 L -32.7834,-277.664 L -37.0984,-270.507 L -35.998,-269.604 L -31.6832,-276.761 L -35.8019,-269.449
 L -34.6789,-268.588 L -30.5596,-275.901 L -34.481,-268.441 L -33.3364,-267.622 L -29.4153,-275.081 L -33.1373,-267.484
 L -31.9721,-266.707 L -28.2502,-274.304 L -31.7719,-266.579 L -30.5873,-265.844 L -27.0656,-273.569 L -30.3863,-265.723
 L -29.1833,-265.03 L -25.8627,-272.876 L -28.9817,-264.919 L -27.7615,-264.268 L -24.6426,-272.225 L -27.5596,-264.164
 L -26.3231,-263.555 L -23.4062,-271.616 L -26.1209,-263.459 L -24.8694,-262.892 L -22.1545,-271.049 L -24.6672,-262.805
 L -23.4016,-262.28 L -20.8893,-270.523 L -23.1994,-262.2 L -21.9208,-261.717 L -19.6104,-270.041 L -21.7188,-261.644
 L -20.4283,-261.203 L -18.3202,-269.599 L -20.2265,-261.137 L -18.9252,-260.738 L -17.0187,-269.201 L -18.7236,-260.68
 L -17.4126,-260.323 L -15.708,-268.843 L -17.2113,-260.272 L -15.8917,-259.957 L -14.3882,-268.529 L -15.6905,-259.912
 L -14.3634,-259.639 L -13.0611,-268.256 L -14.1626,-259.601 L -12.8289,-259.37 L -11.7275,-268.025 L -12.6283,-259.338
 L -11.2893,-259.149 L -10.3884,-267.836 L -11.0889,-259.124 L -9.7455,-258.977 L -9.04512,-267.689 L -9.54527,-258.958
 L -8.19867,-258.854 L -7.69856,-267.583 L -7.99858,-258.841 L -6.64983,-258.778 L -6.34976,-267.521 L -6.44978,-258.772
 L -5.09998,-258.751 L -5,-267.5 L -4.89998,-258.751 L -3.55017,-258.772 L -3.65019,-267.521 L -3.35013,-258.778
 L -2.00137,-258.841 z
M 27.7902,-334 L 27.7908,-334 L 27.781,-333.975 z
M 11.167,-334 L 11.1684,-334 L 11.1944,-333.904 z
M 10.5015,-334 L 10.506,-334 L 10.6,-333.671 z
M 9.81841,-334 L 9.82596,-334 L 9.99767,-333.426 z
M 9.11725,-334 L 9.12801,-334 L 9.38792,-333.168 z
M 8.39751,-334 L 8.41151,-334 L 8.77228,-332.891 z
M 7.65895,-334 L 7.67616,-334 L 8.14706,-332.607 z
M 28.2746,-334 L 28.2807,-334 L 28.1802,-333.76 z
M 28.7708,-334 L 28.7828,-334 L 28.5759,-333.535 z
M 29.28,-334 L 29.2983,-334 L 28.9678,-333.298 z
M 29.8033,-334 L 29.8283,-334 L 29.3557,-333.049 z
M 30.3419,-334 L 30.3741,-334 L 29.74,-332.789 z
M 30.8968,-334 L 30.9366,-334 L 30.1207,-332.518 z
M 31.4693,-334 L 31.5171,-334 L 30.4979,-332.235 z
M 32.0606,-334 L 32.1168,-334 L 30.8714,-331.941 z
M 32.6717,-334 L 32.7367,-334 L 31.2421,-331.636 z
M 33.3038,-334 L 33.378,-334 L 31.6094,-331.32 z
M 33.958,-334 L 34.0418,-334 L 31.9734,-330.993 z
M 34.6354,-334 L 34.7294,-334 L 32.334,-330.654 z
M 35.3372,-334 L 35.4414,-334 L 32.6924,-330.306 z
M 36.0643,-334 L 36.1793,-334 L 33.0471,-329.946 z
M 36.8179,-334 L 36.9438,-334 L 33.4006,-329.577 z
M 37.5988,-334 L 37.7361,-334 L 33.7496,-329.195 z
M 38.4084,-334 L 38.5571,-334 L 34.0974,-328.804 z
M 39.2471,-334 L 39.4077,-334 L 34.4426,-328.402 z
M 6.90103,-334 L 6.92154,-334 L 7.51562,-332.305 z
M 6.12343,-334 L 6.14719,-334 L 6.8765,-331.988 z
M 5.32564,-334 L 5.35274,-334 L 6.23004,-331.656 z
M 4.50752,-334 L 4.53787,-334 L 5.57475,-331.313 z
M 3.66853,-334 L 3.70218,-334 L 4.911,-330.957 z
M 1.92683,-334 L 1.96703,-334 L 3.56142,-330.196 z
M 1.02348,-334 L 1.06693,-334 L 2.87468,-329.792 z
M 0.0980682,-334 L 0.144714,-334 L 2.17815,-329.378 z
M -0.849731,-334 L -0.799927,-334 L 1.47369,-328.948 z
M -1.82019,-334 L -1.76723,-334 L 0.761276,-328.502 z
M -2.81354,-334 L -2.75746,-334 L 0.0403442,-328.042 z
M 2.8084,-334 L 2.84534,-334 L 4.24001,-330.584 z
M -3.5,-333.324 L -3.5,-333.434 L -0.68924,-327.566 z
M -3.5,-331.244 L -3.5,-331.321 L -1.42688,-327.074 z
M -3.5,-329.19 L -3.5,-329.236 L -2.17395,-326.569 z
M -3.5,-327.156 L -3.5,-327.175 L -2.93214,-326.052 z
M 1.57053,-150.025 L 3.13951,-150.099 L 4.70541,-150.222 L 6.26665,-150.394 L 7.82172,-150.616 L 9.36906,-150.886
 L 10.9072,-151.204 L 12.4345,-151.571 L 13.9496,-151.985 L 15.4508,-152.447 L 16.9369,-152.956 L 18.4062,-153.511
 L 19.8574,-154.112 L 21.289,-154.759 L 22.6995,-155.45 L 24.0877,-156.185 L 25.4521,-156.963 L 26.7913,-157.784
 L 28.1042,-158.646 L 29.3893,-159.549 L 30.6453,-160.492 L 31.8712,-161.474 L 33.0656,-162.494 L 34.2273,-163.552
 L 35.3553,-164.645 L 36.4484,-165.773 L 37.5055,-166.934 L 38.5257,-168.129 L 39.5077,-169.355 L 40.4508,-170.611
 L 41.354,-171.896 L 42.2164,-173.209 L 43.0371,-174.548 L 43.8153,-175.912 L 44.5503,-177.3 L 45.2413,-178.711
 L 45.8877,-180.143 L 46.4888,-181.594 L 47.044,-183.063 L 47.5528,-184.549 L 48.0147,-186.05 L 48.4292,-187.566
 L 48.7958,-189.093 L 49.1143,-190.631 L 49.3844,-192.178 L 49.6057,-193.733 L 49.7781,-195.295 L 49.9013,-196.86
 L 49.9753,-198.429 L 50,-200 L 49.9753,-201.571 L 49.9013,-203.14 L 49.7781,-204.705 L 49.6057,-206.267
 L 49.3844,-207.822 L 49.1143,-209.369 L 48.7958,-210.907 L 48.4292,-212.434 L 48.0147,-213.95 L 47.5528,-215.451
 L 47.044,-216.937 L 46.4888,-218.406 L 45.8877,-219.857 L 45.2413,-221.289 L 44.5503,-222.7 L 43.8153,-224.088
 L 43.0371,-225.452 L 42.2164,-226.791 L 41.354,-228.104 L 40.4508,-229.389 L 39.5077,-230.645 L 38.5257,-231.871
 L 37.5055,-233.066 L 36.4484,-234.227 L 35.3553,-235.355 L 34.2273,-236.448 L 33.0656,-237.506 L 31.8712,-238.526
 L 30.6453,-239.508 L 29.3893,-240.451 L 28.1042,-241.354 L 26.7913,-242.216 L 25.4521,-243.037 L 24.0877,-243.815
 L 22.6995,-244.55 L 21.289,-245.241 L 19.8574,-245.888 L 18.4062,-246.489 L 16.9369,-247.044 L 15.4508,-247.553
 L 13.9496,-248.015 L 12.4345,-248.429 L 10.9072,-248.796 L 9.36906,-249.114 L 7.82172,-249.384 L 6.26665,-249.606
 L 4.70541,-249.778 L 3.13951,-249.901 L 1.57053,-249.975 L 0,-250 L -1.57053,-249.975 L -3.13951,-249.901
 L -4.70541,-249.778 L -6.26665,-249.606 L -7.82172,-249.384 L -9.36906,-249.114 L -10.9072,-248.796 L -12.4345,-248.429
 L -13.9496,-248.015 L -15.4508,-247.553 L -16.9369,-247.044 L -18.4062,-246.489 L -19.8574,-245.888 L -21.289,-245.241
 L -22.6995,-244.55 L -24.0877,-243.815 L -25.4521,-243.037 L -26.7913,-242.216 L -28.1042,-241.354 L -29.3893,-240.451
 L -30.6453,-239.508 L -31.8712,-238.526 L -33.0656,-237.506 L -34.2273,-236.448 L -35.3553,-235.355 L -36.4484,-234.227
 L -37.5055,-233.066 L -38.5257,-231.871 L -39.5077,-230.645 L -40.4508,-229.389 L -41.354,-228.104 L -42.2164,-226.791
 L -43.0371,-225.452 L -43.8153,-224.088 L -44.5503,-222.7 L -45.2413,-221.289 L -45.8877,-219.857 L -46.4888,-218.406
 L -47.044,-216.937 L -47.5528,-215.451 L -48.0147,-213.95 L -48.4292,-212.434 L -48.7958,-210.907 L -49.1143,-209.369
 L -49.3844,-207.822 L -49.6057,-206.267 L -49.7781,-204.705 L -49.9013,-203.14 L -49.9753,-201.571 L -50,-200
 L -49.9753,-198.429 L -49.9013,-196.86 L -49.7781,-195.295 L -49.6057,-193.733 L -49.3844,-192.178 L -49.1143,-190.631
 L -48.7958,-189.093 L -48.4292,-187.566 L -48.0147,-186.05 L -47.5528,-184.549 L -47.044,-183.063 L -46.4888,-181.594
 L -45.8877,-180.143 L -45.2413,-178.711 L -44.5503,-177.3 L -43.8153,-175.912 L -43.0371,-174.548 L -42.2164,-173.209
 L -41.354,-171.896 L -40.4508,-170.611 L -39.5077,-169.355 L -38.5257,-168.129 L -37.5055,-166.934 L -36.4484,-165.773
 L -35.3553,-164.645 L -34.2273,-163.552 L -33.0656,-162.494 L -31.8712,-161.474 L -30.6453,-160.492 L -29.3893,-159.549
 L -28.1042,-158.646 L -26.7913,-157.784 L -25.4521,-156.963 L -24.0877,-156.185 L -22.6995,-155.45 L -21.289,-154.759
 L -19.8574,-154.112 L -18.4062,-153.511 L -16.9369,-152.956 L -15.4508,-152.447 L -13.9496,-151.985 L -12.4345,-151.571
 L -10.9072,-151.204 L -9.36906,-150.886 L -7.82172,-150.616 L -6.26665,-150.394 L -4.70541,-150.222 L -3.13951,-150.099
 L -1.57053,-150.025 L 0,-150 z
M -1.41348,-184.511 L -2.82556,-184.544 L -4.23486,-184.6 L -5.63998,-184.677 L -7.03955,-184.777 L -8.43214,-184.899
 L -9.81644,-185.042 L -11.191,-185.207 L -12.5546,-185.393 L -13.9058,-185.601 L -15.2432,-185.83 L -16.5656,-186.08
 L -17.8716,-186.351 L -19.1601,-186.641 L -20.4296,-186.952 L -21.6789,-187.283 L -22.9069,-187.633 L -24.1122,-188.003
 L -25.2937,-188.391 L -26.4503,-188.797 L -27.5808,-189.222 L -28.6841,-189.663 L -29.759,-190.123 L -30.8046,-190.598
 L -31.8198,-191.09 L -32.8036,-191.598 L -33.755,-192.12 L -34.6731,-192.658 L -35.557,-193.21 L -36.4058,-193.775
 L -37.2186,-194.353 L -37.9948,-194.944 L -38.7334,-195.547 L -39.4338,-196.161 L -40.0953,-196.785 L -40.7172,-197.42
 L -41.299,-198.064 L -41.8399,-198.717 L -42.3396,-199.378 L -42.7975,-200.047 L -43.2132,-200.723 L -43.5862,-201.404
 L -43.9162,-202.092 L -44.2029,-202.784 L -44.446,-203.48 L -44.6452,-204.18 L -44.8003,-204.883 L -44.9112,-205.587
 L -44.9778,-206.293 L -45,-207 L -44.9778,-207.707 L -44.9112,-208.413 L -44.8003,-209.117 L -44.6452,-209.82
 L -44.446,-210.52 L -44.2029,-211.216 L -43.9162,-211.908 L -43.5862,-212.596 L -43.2132,-213.277 L -42.7975,-213.953
 L -42.3396,-214.622 L -41.8399,-215.283 L -41.299,-215.936 L -40.7172,-216.58 L -40.0953,-217.215 L -39.4338,-217.839
 L -38.7334,-218.453 L -37.9948,-219.056 L -37.2186,-219.647 L -36.4058,-220.225 L -35.557,-220.79 L -34.6731,-221.342
 L -33.755,-221.88 L -32.8036,-222.402 L -31.8198,-222.91 L -30.8046,-223.402 L -29.759,-223.877 L -28.6841,-224.337
 L -27.5808,-224.778 L -26.4503,-225.203 L -25.2937,-225.609 L -24.1122,-225.997 L -22.9069,-226.367 L -21.6789,-226.717
 L -20.4296,-227.048 L -19.1601,-227.359 L -17.8716,-227.649 L -16.5656,-227.92 L -15.2432,-228.17 L -13.9058,-228.399
 L -12.5546,-228.607 L -11.191,-228.793 L -9.81644,-228.958 L -8.43214,-229.101 L -7.03955,-229.223 L -5.63998,-229.323
 L -4.23486,-229.4 L -2.82556,-229.456 L -1.41348,-229.489 L 0,-229.5 L 1.41348,-229.489 L 2.82556,-229.456
 L 4.23486,-229.4 L 5.63998,-229.323 L 7.03955,-229.223 L 8.43214,-229.101 L 9.81644,-228.958 L 11.191,-228.793
 L 12.5546,-228.607 L 13.9058,-228.399 L 15.2432,-228.17 L 16.5656,-227.92 L 17.8716,-227.649 L 19.1601,-227.359
 L 20.4296,-227.048 L 21.6789,-226.717 L 22.9069,-226.367 L 24.1122,-225.997 L 25.2937,-225.609 L 26.4503,-225.203
 L 27.5808,-224.778 L 28.6841,-224.337 L 29.759,-223.877 L 30.8046,-223.402 L 31.8198,-222.91 L 32.8036,-222.402
 L 33.755,-221.88 L 34.6731,-221.342 L 35.557,-220.79 L 36.4058,-220.225 L 37.2186,-219.647 L 37.9948,-219.056
 L 38.7334,-218.453 L 39.4338,-217.839 L 40.0953,-217.215 L 40.7172,-216.58 L 41.299,-215.936 L 41.8399,-215.283
 L 42.3396,-214.622 L 42.7975,-213.953 L 43.2132,-213.277 L 43.5862,-212.596 L 43.9162,-211.908 L 44.2029,-211.216
 L 44.446,-210.52 L 44.6452,-209.82 L 44.8003,-209.117 L 44.9112,-208.413 L 44.9778,-207.707 L 45,-207
 L 44.9778,-206.293 L 44.9112,-205.587 L 44.8003,-204.883 L 44.6452,-204.18 L 44.446,-203.48 L 44.2029,-202.784
 L 43.9162,-202.092 L 43.5862,-201.404 L 43.2132,-200.723 L 42.7975,-200.047 L 42.3396,-199.378 L 41.8399,-198.717
 L 41.299,-198.064 L 40.7172,-197.42 L 40.0953,-196.785 L 39.4338,-196.161 L 38.7334,-195.547 L 37.9948,-194.944
 L 37.2186,-194.353 L 36.4058,-193.775 L 35.557,-193.21 L 34.6731,-192.658 L 33.755,-192.12 L 32.8036,-191.598
 L 31.8198,-191.09 L 30.8046,-190.598 L 29.759,-190.123 L 28.6841,-189.663 L 27.5808,-189.222 L 26.4503,-188.797
 L 25.2937,-188.391 L 24.1122,-188.003 L 22.9069,-187.633 L 21.6789,-187.283 L 20.4296,-186.952 L 19.1601,-186.641
 L 17.8716,-186.351 L 16.5656,-186.08 L 15.2432,-185.83 L 13.9058,-185.601 L 12.5546,-185.393 L 11.191,-185.207
 L 9.81644,-185.042 L 8.43214,-184.899 L 7.03955,-184.777 L 5.63998,-184.677 L 4.23486,-184.6 L 2.82556,-184.544
 L 1.41348,-184.511 L 0,-184.5 z
M 1.57053,-40.0247 L 3.13951,-40.0987 L 4.70541,-40.2219 L 6.26665,-40.3943 L 7.82172,-40.6156 L 9.36906,-40.8857
 L 10.9072,-41.2042 L 12.4345,-41.5708 L 13.9496,-41.9853 L 15.4508,-42.4472 L 16.9369,-42.956 L 18.4062,-43.5112
 L 19.8574,-44.1123 L 21.289,-44.7587 L 22.6995,-45.4497 L 24.0877,-46.1847 L 25.4521,-46.9629 L 26.7913,-47.7836
 L 28.1042,-48.646 L 29.3893,-49.5492 L 30.6453,-50.4923 L 31.8712,-51.4743 L 33.0656,-52.4945 L 34.2273,-53.5516
 L 35.3553,-54.6447 L 36.4484,-55.7727 L 37.5055,-56.9344 L 38.5257,-58.1288 L 39.5077,-59.3547 L 40.4508,-60.6107
 L 41.354,-61.8958 L 42.2164,-63.2087 L 43.0371,-64.5479 L 43.8153,-65.9123 L 44.5503,-67.3005 L 45.2413,-68.711
 L 45.8877,-70.1426 L 46.4888,-71.5938 L 47.044,-73.0631 L 47.5528,-74.5492 L 48.0147,-76.0504 L 48.4292,-77.5655
 L 48.7958,-79.0928 L 49.1143,-80.6309 L 49.3844,-82.1783 L 49.6057,-83.7334 L 49.7781,-85.2946 L 49.9013,-86.8605
 L 49.9753,-88.4295 L 50,-90 L 49.9753,-91.5705 L 49.9013,-93.1395 L 49.7781,-94.7054 L 49.6057,-96.2666
 L 49.3844,-97.8217 L 49.1143,-99.3691 L 48.7958,-100.907 L 48.4292,-102.434 L 48.0147,-103.95 L 47.5528,-105.451
 L 47.044,-106.937 L 46.4888,-108.406 L 45.8877,-109.857 L 45.2413,-111.289 L 44.5503,-112.7 L 43.8153,-114.088
 L 43.0371,-115.452 L 42.2164,-116.791 L 41.354,-118.104 L 40.4508,-119.389 L 39.5077,-120.645 L 38.5257,-121.871
 L 37.5055,-123.066 L 36.4484,-124.227 L 35.3553,-125.355 L 34.2273,-126.448 L 33.0656,-127.506 L 31.8712,-128.526
 L 30.6453,-129.508 L 29.3893,-130.451 L 28.1042,-131.354 L 26.7913,-132.216 L 25.4521,-133.037 L 24.0877,-133.815
 L 22.6995,-134.55 L 21.289,-135.241 L 19.8574,-135.888 L 18.4062,-136.489 L 16.9369,-137.044 L 15.4508,-137.553
 L 13.9496,-138.015 L 12.4345,-138.429 L 10.9072,-138.796 L 9.36906,-139.114 L 7.82172,-139.384 L 6.26665,-139.606
 L 4.70541,-139.778 L 3.13951,-139.901 L 1.57053,-139.975 L 0,-140 L -1.57053,-139.975 L -3.13951,-139.901
 L -4.70541,-139.778 L -6.26665,-139.606 L -7.82172,-139.384 L -9.36906,-139.114 L -10.9072,-138.796 L -12.4345,-138.429
 L -13.9496,-138.015 L -15.4508,-137.553 L -16.9369,-137.044 L -18.4062,-136.489 L -19.8574,-135.888 L -21.289,-135.241
 L -22.6995,-134.55 L -24.0877,-133.815 L -25.4521,-133.037 L -26.7913,-132.216 L -28.1042,-131.354 L -29.3893,-130.451
 L -30.6453,-129.508 L -31.8712,-128.526 L -33.0656,-127.506 L -34.2273,-126.448 L -35.3553,-125.355 L -36.4484,-124.227
 L -37.5055,-123.066 L -38.5257,-121.871 L -39.5077,-120.645 L -40.4508,-119.389 L -41.354,-118.104 L -42.2164,-116.791
 L -43.0371,-115.452 L -43.8153,-114.088 L -44.5503,-112.7 L -45.2413,-111.289 L -45.8877,-109.857 L -46.4888,-108.406
 L -47.044,-106.937 L -47.5528,-105.451 L -48.0147,-103.95 L -48.4292,-102.434 L -48.7958,-100.907 L -49.1143,-99.3691
 L -49.3844,-97.8217 L -49.6057,-96.2666 L -49.7781,-94.7054 L -49.9013,-93.1395 L -49.9753,-91.5705 L -50,-90
 L -49.9753,-88.4295 L -49.9013,-86.8605 L -49.7781,-85.2946 L -49.6057,-83.7334 L -49.3844,-82.1783 L -49.1143,-80.6309
 L -48.7958,-79.0928 L -48.4292,-77.5655 L -48.0147,-76.0504 L -47.5528,-74.5492 L -47.044,-73.0631 L -46.4888,-71.5938
 L -45.8877,-70.1426 L -45.2413,-68.711 L -44.5503,-67.3005 L -43.8153,-65.9123 L -43.0371,-64.5479 L -42.2164,-63.2087
 L -41.354,-61.8958 L -40.4508,-60.6107 L -39.5077,-59.3547 L -38.5257,-58.1288 L -37.5055,-56.9344 L -36.4484,-55.7727
 L -35.3553,-54.6447 L -34.2273,-53.5516 L -33.0656,-52.4945 L -31.8712,-51.4743 L -30.6453,-50.4923 L -29.3893,-49.5492
 L -28.1042,-48.646 L -26.7913,-47.7836 L -25.4521,-46.9629 L -24.0877,-46.1847 L -22.6995,-45.4497 L -21.289,-44.7587
 L -19.8574,-44.1123 L -18.4062,-43.5112 L -16.9369,-42.956 L -15.4508,-42.4472 L -13.9496,-41.9853 L -12.4345,-41.5708
 L -10.9072,-41.2042 L -9.36906,-40.8857 L -7.82172,-40.6156 L -6.26665,-40.3943 L -4.70541,-40.2219 L -3.13951,-40.0987
 L -1.57053,-40.0247 L 0,-40 z
M -1.41348,-74.5111 L -2.82556,-74.5444 L -4.23486,-74.5999 L -5.63998,-74.6774 L -7.03955,-74.777 L -8.43214,-74.8985
 L -9.81644,-75.0419 L -11.191,-75.2069 L -12.5546,-75.3934 L -13.9058,-75.6012 L -15.2432,-75.8302 L -16.5656,-76.08
 L -17.8716,-76.3505 L -19.1601,-76.6414 L -20.4296,-76.9524 L -21.6789,-77.2831 L -22.9069,-77.6333 L -24.1122,-78.0026
 L -25.2937,-78.3907 L -26.4503,-78.7971 L -27.5808,-79.2215 L -28.6841,-79.6635 L -29.759,-80.1225 L -30.8046,-80.5982
 L -31.8198,-81.0901 L -32.8036,-81.5977 L -33.755,-82.1205 L -34.6731,-82.658 L -35.557,-83.2096 L -36.4058,-83.7748
 L -37.2186,-84.3531 L -37.9948,-84.9439 L -38.7334,-85.5466 L -39.4338,-86.1606 L -40.0953,-86.7852 L -40.7172,-87.42
 L -41.299,-88.0642 L -41.8399,-88.7172 L -42.3396,-89.3784 L -42.7975,-90.0471 L -43.2132,-90.7227 L -43.5862,-91.4045
 L -43.9162,-92.0918 L -44.2029,-92.7839 L -44.446,-93.4802 L -44.6452,-94.18 L -44.8003,-94.8826 L -44.9112,-95.5872
 L -44.9778,-96.2932 L -45,-97 L -44.9778,-97.7067 L -44.9112,-98.4128 L -44.8003,-99.1174 L -44.6452,-99.82
 L -44.446,-100.52 L -44.2029,-101.216 L -43.9162,-101.908 L -43.5862,-102.596 L -43.2132,-103.277 L -42.7975,-103.953
 L -42.3396,-104.622 L -41.8399,-105.283 L -41.299,-105.936 L -40.7172,-106.58 L -40.0953,-107.215 L -39.4338,-107.839
 L -38.7334,-108.453 L -37.9948,-109.056 L -37.2186,-109.647 L -36.4058,-110.225 L -35.557,-110.79 L -34.6731,-111.342
 L -33.755,-111.88 L -32.8036,-112.402 L -31.8198,-112.91 L -30.8046,-113.402 L -29.759,-113.877 L -28.6841,-114.337
 L -27.5808,-114.778 L -26.4503,-115.203 L -25.2937,-115.609 L -24.1122,-115.997 L -22.9069,-116.367 L -21.6789,-116.717
 L -20.4296,-117.048 L -19.1601,-117.359 L -17.8716,-117.649 L -16.5656,-117.92 L -15.2432,-118.17 L -13.9058,-118.399
 L -12.5546,-118.607 L -11.191,-118.793 L -9.81644,-118.958 L -8.43214,-119.101 L -7.03955,-119.223 L -5.63998,-119.323
 L -4.23486,-119.4 L -2.82556,-119.456 L -1.41348,-119.489 L 0,-119.5 L 1.41348,-119.489 L 2.82556,-119.456
 L 4.23486,-119.4 L 5.63998,-119.323 L 7.03955,-119.223 L 8.43214,-119.101 L 9.81644,-118.958 L 11.191,-118.793
 L 12.5546,-118.607 L 13.9058,-118.399 L 15.2432,-118.17 L 16.5656,-117.92 L 17.8716,-117.649 L 19.1601,-117.359
 L 20.4296,-117.048 L 21.6789,-116.717 L 22.9069,-116.367 L 24.1122,-115.997 L 25.2937,-115.609 L 26.4503,-115.203
 L 27.5808,-114.778 L 28.6841,-114.337 L 29.759,-113.877 L 30.8046,-113.402 L 31.8198,-112.91 L 32.8036,-112.402
 L 33.755,-111.88 L 34.6731,-111.342 L 35.557,-110.79 L 36.4058,-110.225 L 37.2186,-109.647 L 37.9948,-109.056
 L 38.7334,-108.453 L 39.4338,-107.839 L 40.0953,-107.215 L 40.7172,-106.58 L 41.299,-105.936 L 41.8399,-105.283
 L 42.3396,-104.622 L 42.7975,-103.953 L 43.2132,-103.277 L 43.5862,-102.596 L 43.9162,-101.908 L 44.2029,-101.216
 L 44.446,-100.52 L 44.6452,-99.82 L 44.8003,-99.1174 L 44.9112,-98.4128 L 44.9778,-97.7067 L 45,-97
 L 44.9778,-96.2932 L 44.9112,-95.5872 L 44.8003,-94.8826 L 44.6452,-94.18 L 44.446,-93.4802 L 44.2029,-92.7839
 L 43.9162,-92.0918 L 43.5862,-91.4045 L 43.2132,-90.7227 L 42.7975,-90.0471 L 42.3396,-89.3784 L 41.8399,-88.7172
 L 41.299,-88.0642 L 40.7172,-87.42 L 40.0953,-86.7852 L 39.4338,-86.1606 L 38.7334,-85.5466 L 37.9948,-84.9439
 L 37.2186,-84.3531 L 36.4058,-83.7748 L 35.557,-83.2096 L 34.6731,-82.658 L 33.755,-82.1205 L 32.8036,-81.5977
 L 31.8198,-81.0901 L 30.8046,-80.5982 L 29.759,-80.1225 L 28.6841,-79.6635 L 27.5808,-79.2215 L 26.4503,-78.7971
 L 25.2937,-78.3907 L 24.1122,-78.0026 L 22.9069,-77.6333 L 21.6789,-77.2831 L 20.4296,-76.9524 L 19.1601,-76.6414
 L 17.8716,-76.3505 L 16.5656,-76.08 L 15.2432,-75.8302 L 13.9058,-75.6012 L 12.5546,-75.3934 L 11.191,-75.2069
 L 9.81644,-75.0419 L 8.43214,-74.8985 L 7.03955,-74.777 L 5.63998,-74.6774 L 4.23486,-74.5999 L 2.82556,-74.5444
 L 1.41348,-74.5111 L 0,-74.5 z
M -2.30139,52.4169 L -1.80128,61.1465 L -0.454681,61.0415 L -0.954834,52.3111 L -0.254456,61.0228 L 1.0889,60.8757
 L 0.388519,52.164 L 1.28931,60.8506 L 2.62836,60.6616 L 1.72752,51.9751 L 2.82895,60.6301 L 4.1626,60.3991
 L 3.06117,51.7441 L 4.36346,60.3611 L 5.69057,60.088 L 4.38823,51.4708 L 5.89171,60.0434 L 7.2113,59.7284
 L 5.70805,51.1571 L 7.41267,59.6769 L 8.72362,59.3199 L 7.01881,50.799 L 8.92526,59.2615 L 10.2265,58.8625
 L 8.32019,50.4009 L 10.4283,58.7971 L 11.7188,58.3561 L 9.61044,49.959 L 11.9208,58.2834 L 13.1994,57.8004
 L 10.8893,49.4771 L 13.4016,57.7203 L 14.6672,57.1953 L 12.1545,48.951 L 14.8694,57.1076 L 16.1209,56.5406
 L 13.4062,48.3843 L 16.3231,56.445 L 17.5596,55.836 L 14.6426,47.7753 L 17.7615,55.7324 L 18.9817,55.0814
 L 15.8627,47.124 L 19.1833,54.9696 L 20.3863,54.2766 L 17.0656,46.431 L 20.5873,54.1564 L 21.7719,53.4214
 L 18.2502,45.6959 L 21.9721,53.2925 L 23.1373,52.5155 L 19.4153,44.9189 L 23.3364,52.3779 L 24.481,51.5589
 L 20.5596,44.0994 L 24.6789,51.4123 L 25.8019,50.5513 L 21.6832,43.2394 L 25.998,50.3958 L 27.0984,49.4927
 L 22.7833,42.336 L 27.2925,49.328 L 28.369,48.3829 L 23.8599,41.391 L 28.5607,48.209 L 29.6125,47.222
 L 24.9117,40.404 L 29.8013,47.0387 L 30.8271,46.0098 L 25.9375,39.375 L 31.0127,45.8173 L 32.0115,44.7463
 L 26.9363,38.304 L 32.1933,44.5447 L 33.164,43.4317 L 27.9074,37.1913 L 33.3416,43.2212 L 34.2832,42.0662
 L 28.849,36.0364 L 34.456,41.8468 L 35.3673,40.6498 L 29.7603,34.8394 L 35.5349,40.4219 L 36.4149,39.1829
 L 30.64,33.6 L 36.5768,38.9468 L 37.4244,37.6658 L 31.4872,32.3186 L 37.5801,37.422 L 38.3942,36.099
 L 32.3017,30.996 L 38.5432,35.8478 L 39.3227,34.4828 L 33.081,29.6307 L 39.4646,34.2248 L 40.2085,32.8178
 L 33.825,28.2238 L 40.3427,32.5537 L 41.0499,31.1047 L 34.5325,26.775 L 41.1762,30.835 L 41.8457,29.344
 L 35.2021,25.2841 L 41.9637,29.0695 L 42.5942,27.5365 L 35.8327,23.7511 L 42.7037,27.2579 L 43.2943,25.6829
 L 36.423,22.176 L 43.395,25.4011 L 43.9445,23.784 L 36.9726,20.559 L 44.0363,23.4996 L 44.5437,21.8407
 L 37.4798,18.8999 L 44.6265,21.5546 L 45.0907,19.8536 L 37.9442,17.199 L 45.1644,19.5667 L 45.5844,17.8237
 L 38.3641,15.456 L 45.649,17.5367 L 46.0236,15.7517 L 38.7389,13.671 L 46.0793,15.4655 L 46.4075,13.6385
 L 39.067,11.844 L 46.4544,13.3537 L 46.735,11.4847 L 39.3475,9.97496 L 46.7733,11.2021 L 47.0054,9.29115
 L 39.5795,8.064 L 47.0354,9.01147 L 47.2177,7.05847 L 39.7612,6.1109 L 47.2397,6.78226 L 47.3713,4.78729
 L 39.8935,4.11598 L 47.3856,4.51518 L 47.4653,2.47818 L 39.9724,2.07892 L 47.4723,2.21062 L 47.4991,0.131638
 L 40,-0 L 47.4991,-0.130783 L 47.4719,-2.2518 L 42.8973,-2.17201 L 46.3096,-4.73009 L 45.9942,-5.30287
 L 41.7921,-2.15273 L 41.7496,-2.15198 L 45.9571,-5.36952 L 45.6407,-5.93279 L 40.672,-2.13318 L 40.6449,-2.13271
 L 45.6015,-6.00179 L 45.2839,-6.55545 L 39.5946,-2.11438 L 39.5829,-2.11417 L 45.2425,-6.62691 L 44.9238,-7.17094
 L 38.7329,-2.23454 L 44.8801,-7.24481 L 44.5601,-7.77913 L 38.4094,-2.76604 L 44.5139,-7.85545 L 44.1926,-8.38
 L 38.0905,-3.29262 L 44.1438,-8.45872 L 43.821,-8.9735 L 37.7678,-3.8074 L 43.7695,-9.05463 L 43.4452,-9.55946
 L 37.4444,-4.31305 L 43.3909,-9.64305 L 43.065,-10.138 L 37.1187,-4.80817 L 43.0076,-10.2239 L 42.68,-10.7088
 L 36.79,-5.29198 L 42.6196,-10.7971 L 42.2901,-11.2719 L 36.4605,-5.76675 L 42.2264,-11.3625 L 41.8951,-11.8271
 L 36.1302,-6.23235 L 41.828,-11.92 L 41.4947,-12.3744 L 35.7959,-6.68587 L 41.424,-12.4694 L 41.0887,-12.9136
 L 35.4614,-7.13084 L 41.0143,-13.0107 L 40.6768,-13.4446 L 35.1224,-7.56311 L 40.5985,-13.5436 L 40.2587,-13.967
 L 34.7833,-7.98737 L 40.1162,-14 L 40.2746,-14 L 40.2746,-31.5 L -11,-31.5 L -11,-23.1731
 L -18.5,-23.1731 L -18.5,-0 L -12.2672,-0 L -7.60838,7.89865 L -6.76866,7.22446 L -5.94963,6.57446
 L -5.14479,5.94325 L -4.3454,5.32407 L -3.56747,4.72923 L -2.79175,4.14386 L -2.03291,3.57904 L -1.27769,3.02501
 L -0.541931,2.49324 L 0.1866,1.97473 L 0.906204,1.47079 L 1.61249,0.984482 L 2.31131,0.511566 L 2.99214,0.0591736
 L 3.67082,-0.383179 L 4.33412,-0.80722 L 4.98882,-1.21706 L 5.63362,-1.61205 L 6.26556,-1.99054 L 6.88995,-2.35567
 L 7.5007,-2.70409 L 8.10133,-3.03777 L 8.68974,-3.35596 L 9.27129,-3.66139 L 9.8396,-3.95096 L 10.394,-4.22455
 L 10.9444,-4.48705 L 11.479,-4.73303 L 12.0068,-4.96678 L 12.5177,-5.1841 L 13.0226,-5.38982 L 13.5171,-5.58218
 L 13.997,-5.75986 L 14.47,-5.9259 L 14.928,-6.07773 L 15.3777,-6.21782 L 15.8195,-6.34647 L 16.2456,-6.46161
 L 16.6638,-6.5657 L 17.0726,-6.65857 L 17.4693,-6.73991 L 17.8541,-6.81013 L 18.2289,-6.86984 L 18.5962,-6.91978
 L 18.9525,-6.95963 L 19.2995,-6.98996 L 19.6349,-7.01089 L 19.9634,-7.02312 L 20.2808,-7.02664 L 20.5911,-7.02194
 L 20.8928,-7.00929 L 21.187,-6.98894 L 21.4725,-6.96123 L 21.7519,-6.92619 L 22.0248,-6.88416 L 22.2921,-6.83519
 L 22.5521,-6.7798 L 22.809,-6.71732 L 23.0596,-6.6487 L 23.3072,-6.57323 L 23.5511,-6.49115 L 23.7911,-6.40265
 L 24.0305,-6.30663 L 24.2668,-6.20409 L 24.5012,-6.09456 L 24.7359,-5.9769 L 24.9694,-5.85188 L 25.202,-5.71927
 L 25.4349,-5.57834 L 25.6687,-5.42859 L 25.9038,-5.26959 L 26.1384,-5.10239 L 26.3758,-4.92455 L 26.6127,-4.73831
 L 26.8537,-4.53992 L 27.0943,-4.33292 L 27.3381,-4.11385 L 27.5819,-3.88564 L 27.8295,-3.64435 L 28.0775,-3.39319
 L 28.3282,-3.12952 L 28.5816,-2.85326 L 28.8345,-2.56769 L 29.0911,-2.26782 L 29.3497,-1.95572 L 29.6082,-1.63351
 L 29.8689,-1.29845 L 30.1329,-0.948746 L 30.3966,-0.589111 L 30.6633,-0.215012 L 30.932,0.172226 L 31.1985,0.566635
 L 31.4678,0.975616 L 31.7395,1.39859 L 32.0123,1.83357 L 32.2865,2.28128 L 32.4469,2.5491 L 32.4065,3.58171
 L 32.293,5.30206 L 32.1367,6.97644 L 31.9388,8.60623 L 31.7007,10.1923 L 31.4238,11.7336 L 31.1096,13.2305
 L 30.7587,14.6872 L 30.373,16.1006 L 29.9525,17.4752 L 29.4993,18.809 L 29.0137,20.1041 L 28.4968,21.3605
 L 27.95,22.5786 L 27.3732,23.7604 L 26.7674,24.9061 L 26.1326,26.0175 L 25.4711,27.0926 L 24.7821,28.1337
 L 24.0676,29.1397 L 23.3266,30.113 L 22.5597,31.0538 L 21.7687,31.9608 L 20.9537,32.8346 L 20.1153,33.6756
 L 19.254,34.484 L 18.3701,35.2598 L 17.4656,36.0021 L 16.5391,36.7124 L 15.5931,37.3893 L 14.627,38.0336
 L 13.6436,38.6438 L 12.6424,39.2205 L 11.6241,39.7638 L 10.5899,40.2732 L 9.54031,40.7487 L 8.47771,41.1896
 L 7.40077,41.5964 L 6.31143,41.9687 L 5.21312,42.3055 L 4.10423,42.6075 L 2.98399,42.8749 L 1.85986,43.1061
 L 0.727356,43.3024 L -0.412384,43.4632 L -1.55396,43.5881 L -2.70258,43.6777 L -3.8512,43.7313 L -5.00005,43.7492
 L -6.1488,43.7313 L -7.29752,43.6777 L -8.446,43.5881 L -9.58757,43.4632 L -10.7273,43.3024 L -11.8598,43.1061
 L -12.9839,42.8749 L -14.1042,42.6075 L -15.2131,42.3055 L -16.3115,41.9687 L -17.4007,41.5964 L -18.4777,41.1896
 L -19.5403,40.7487 L -20.59,40.2732 L -21.6241,39.7638 L -22.6423,39.2206 L -23.6436,38.6438 L -24.627,38.0336
 L -25.5931,37.3893 L -26.5392,36.7124 L -27.4657,36.002 L -28.37,35.2599 L -29.2539,34.484 L -30.1152,33.6756
 L -30.9538,32.8345 L -31.7687,31.9608 L -32.5597,31.0538 L -33.3266,30.113 L -34.0677,29.1397 L -34.7821,28.1338
 L -35.4711,27.0925 L -36.1327,26.0175 L -36.7673,24.9062 L -37.3731,23.7604 L -37.95,22.5785 L -38.4968,21.3606
 L -39.0137,20.1041 L -39.4993,18.809 L -39.9525,17.4753 L -40.373,16.1006 L -40.7587,14.6872 L -41.1096,13.2305
 L -41.4238,11.7337 L -41.7007,10.1922 L -41.9388,8.60628 L -42.1367,6.97639 L -42.293,5.30212 L -42.4065,3.58171
 L -42.4757,1.81345 L -42.5008,-0.131638 L -57.4991,0.131638 L -57.4723,2.21062 L -49.9724,2.07892 L -57.4653,2.47818
 L -57.3856,4.51518 L -49.8935,4.11598 L -57.3713,4.78729 L -57.2397,6.78226 L -49.7612,6.1109 L -57.2177,7.05847
 L -57.0354,9.01147 L -49.5795,8.064 L -57.0054,9.29115 L -56.7733,11.2021 L -49.3475,9.97496 L -56.735,11.4847
 L -56.4544,13.3537 L -49.067,11.844 L -56.4075,13.6385 L -56.0793,15.4655 L -48.7389,13.671 L -56.0236,15.7517
 L -55.649,17.5367 L -48.3641,15.456 L -55.5844,17.8237 L -55.1644,19.5667 L -47.9442,17.1989 L -55.0907,19.8536
 L -54.6265,21.5546 L -47.4798,18.8999 L -54.5437,21.8407 L -54.0363,23.4996 L -46.9725,20.559 L -53.9445,23.784
 L -53.395,25.4011 L -46.423,22.176 L -53.2943,25.6829 L -52.7037,27.2579 L -45.8327,23.7511 L -52.5942,27.5365
 L -51.9637,29.0695 L -45.2021,25.2841 L -51.8457,29.344 L -51.1762,30.835 L -44.5325,26.775 L -51.0499,31.1047
 L -50.3427,32.5537 L -43.825,28.2238 L -50.2085,32.8178 L -49.4646,34.2248 L -43.081,29.6307 L -49.3227,34.4828
 L -48.5432,35.8478 L -42.3017,30.996 L -48.3942,36.099 L -47.5801,37.422 L -41.4872,32.3186 L -47.4244,37.6658
 L -46.5768,38.9468 L -40.64,33.6 L -46.4149,39.1829 L -45.5349,40.4219 L -39.7603,34.8394 L -45.3673,40.6498
 L -44.456,41.8468 L -38.849,36.0364 L -44.2832,42.0662 L -43.3416,43.2212 L -37.9074,37.1913 L -43.164,43.4317
 L -42.1933,44.5447 L -36.9363,38.304 L -42.0115,44.7463 L -41.0127,45.8173 L -35.9375,39.3749 L -40.8271,46.0098
 L -39.8013,47.0387 L -34.9117,40.404 L -39.6125,47.222 L -38.5607,48.209 L -33.8599,41.391 L -38.369,48.3829
 L -37.2925,49.328 L -32.7834,42.336 L -37.0984,49.4927 L -35.998,50.3958 L -31.6832,43.2394 L -35.8019,50.5513
 L -34.6789,51.4123 L -30.5596,44.0994 L -34.481,51.5589 L -33.3364,52.3779 L -29.4153,44.9189 L -33.1373,52.5155
 L -31.9721,53.2925 L -28.2502,45.6959 L -31.7719,53.4214 L -30.5873,54.1564 L -27.0656,46.431 L -30.3863,54.2766
 L -29.1833,54.9696 L -25.8627,47.124 L -28.9817,55.0814 L -27.7615,55.7324 L -24.6426,47.7753 L -27.5596,55.836
 L -26.3231,56.445 L -23.4062,48.3843 L -26.1209,56.5406 L -24.8694,57.1076 L -22.1545,48.951 L -24.6672,57.1953
 L -23.4016,57.7203 L -20.8893,49.4771 L -23.1994,57.8004 L -21.9208,58.2834 L -19.6104,49.959 L -21.7188,58.3561
 L -20.4283,58.7971 L -18.3202,50.4009 L -20.2265,58.8625 L -18.9252,59.2615 L -17.0187,50.799 L -18.7236,59.3199
 L -17.4126,59.6769 L -15.708,51.1571 L -17.2113,59.7284 L -15.8917,60.0434 L -14.3882,51.4708 L -15.6905,60.088
 L -14.3634,60.3611 L -13.0611,51.7441 L -14.1626,60.3991 L -12.8289,60.6301 L -11.7275,51.9751 L -12.6283,60.6616
 L -11.2893,60.8506 L -10.3884,52.164 L -11.0889,60.8757 L -9.7455,61.0228 L -9.04512,52.3111 L -9.54527,61.0415
 L -8.19867,61.1465 L -7.69856,52.4169 L -7.99858,61.1589 L -6.64983,61.222 L -6.34976,52.479 L -6.44978,61.2282
 L -5.09998,61.2492 L -5,52.5 L -4.89998,61.2492 L -3.55017,61.2282 L -3.65019,52.479 L -3.35013,61.222
 L -2.00137,61.1589 z
M 3.66853,-14 L 3.70218,-14 L 4.911,-10.9568 z
M 39.2471,-14 L 39.4077,-14 L 34.4426,-8.40195 z
M 38.4084,-14 L 38.5571,-14 L 34.0974,-8.80362 z
M 37.5988,-14 L 37.7361,-14 L 33.7496,-9.19476 z
M 36.8179,-14 L 36.9438,-14 L 33.4006,-9.57677 z
M 36.0643,-14 L 36.1793,-14 L 33.0471,-9.9458 z
M 35.3372,-14 L 35.4414,-14 L 32.6924,-10.3062 z
M 34.6354,-14 L 34.7294,-14 L 32.334,-10.6545 z
M 33.958,-14 L 34.0418,-14 L 31.9734,-10.9932 z
M 33.3038,-14 L 33.378,-14 L 31.6094,-11.3203 z
M 32.6717,-14 L 32.7367,-14 L 31.2421,-11.6363 z
M 32.0606,-14 L 32.1168,-14 L 30.8714,-11.9407 z
M 31.4693,-14 L 31.5171,-14 L 30.4979,-12.2351 z
M 30.8968,-14 L 30.9366,-14 L 30.1207,-12.5177 z
M 30.3419,-14 L 30.3741,-14 L 29.74,-12.789 z
M 29.8033,-14 L 29.8283,-14 L 29.3557,-13.049 z
M 29.28,-14 L 29.2983,-14 L 28.9678,-13.2979 z
M 28.7708,-14 L 28.7828,-14 L 28.5759,-13.5346 z
M 28.2746,-14 L 28.2807,-14 L 28.1802,-13.7602 z
M 27.7902,-14 L 27.7908,-14 L 27.781,-13.9751 z
M 11.167,-14 L 11.1684,-14 L 11.1944,-13.9041 z
M 10.5015,-14 L 10.506,-14 L 10.6,-13.671 z
M 9.81841,-14 L 9.82596,-14 L 9.99767,-13.4263 z
M 9.11725,-14 L 9.12801,-14 L 9.38792,-13.1683 z
M 8.39751,-14 L 8.41151,-14 L 8.77228,-12.8914 z
M 7.65895,-14 L 7.67616,-14 L 8.14706,-12.6071 z
M 6.90103,-14 L 6.92154,-14 L 7.51562,-12.3047 z
M 6.12343,-14 L 6.14719,-14 L 6.8765,-11.9883 z
M 5.32564,-14 L 5.35274,-14 L 6.23004,-11.6565 z
M 4.50752,-14 L 4.53787,-14 L 5.57475,-11.3133 z
M 2.8084,-14 L 2.84534,-14 L 4.24001,-10.584 z
M 1.92683,-14 L 1.96703,-14 L 3.56142,-10.1955 z
M 1.02348,-14 L 1.06693,-14 L 2.87468,-9.79248 z
M 0.0980682,-14 L 0.144714,-14 L 2.17815,-9.3782 z
M -0.849731,-14 L -0.799927,-14 L 1.47369,-8.94818 z
M -1.82019,-14 L -1.76723,-14 L 0.761276,-8.5023 z
M -2.81354,-14 L -2.75746,-14 L 0.0403442,-8.04163 z
M -3.5,-13.3239 L -3.5,-13.4344 L -0.68924,-7.5661 z
M -3.5,-11.2442 L -3.5,-11.321 L -1.42688,-7.07413 z
M -3.5,-9.18964 L -3.5,-9.23589 L -2.17395,-6.56859 z
M -3.5,-7.15599 L -3.5,-7.17468 L -2.93214,-6.05226 z
" stroke="black" fill="lightgray" stroke-width="0.5"/>
</svg>
